<?xml version="1.0" encoding="UTF-8"?>
<svg id="Layer_2" data-name="Layer 2" xmlns="http://www.w3.org/2000/svg" viewBox="0 0 84.33 74.05">
  <defs>
    <style>
      .cls-1 {
        fill: #231f20;
      }
    </style>
  </defs>
  <g id="Layer_1-2" data-name="Layer 1">
    <path class="cls-1" d="M76.61,29.31c-3.47,0-6.37,2.31-7.34,5.47h-10.83c-.56-4.1-2.63-7.72-5.64-10.28V9.97h7.12c.97,3.15,3.88,5.46,7.34,5.46,4.25,0,7.72-3.46,7.72-7.71s-3.46-7.72-7.72-7.72c-3.47,0-6.37,2.31-7.34,5.47h-9.37c-1.24,0-2.25,1.01-2.25,2.25v14.06c-1.9-.77-3.96-1.2-6.13-1.2s-4.24,.43-6.13,1.2V7.72c0-1.24-1.01-2.25-2.25-2.25h-9.37c-.97-3.15-3.88-5.47-7.34-5.47-4.25,0-7.72,3.46-7.72,7.72s3.46,7.71,7.72,7.71c3.47,0,6.37-2.31,7.34-5.46h7.12v14.53c-3.01,2.56-5.08,6.18-5.64,10.28H15.06c-.97-3.15-3.88-5.47-7.34-5.47-4.25,0-7.72,3.46-7.72,7.72s3.46,7.72,7.72,7.72c3.47,0,6.37-2.31,7.34-5.47h10.83c.56,4.1,2.63,7.72,5.64,10.28v14.53h-7.12c-.97-3.15-3.88-5.46-7.34-5.46-4.25,0-7.72,3.46-7.72,7.71s3.46,7.72,7.72,7.72c3.47,0,6.37-2.31,7.34-5.47h9.37c1.24,0,2.25-1.01,2.25-2.25v-14.06c1.9,.77,3.96,1.2,6.13,1.2s4.24-.43,6.13-1.2v14.06c0,1.24,1.01,2.25,2.25,2.25h9.37c.97,3.15,3.88,5.47,7.34,5.47,4.25,0,7.72-3.46,7.72-7.72s-3.46-7.71-7.72-7.71c-3.47,0-6.37,2.31-7.34,5.46h-7.12v-14.53c3.01-2.56,5.08-6.18,5.64-10.28h10.83c.97,3.15,3.88,5.47,7.34,5.47,4.25,0,7.72-3.46,7.72-7.72s-3.46-7.72-7.72-7.72Zm-9.36-24.81c1.77,0,3.22,1.44,3.22,3.22s-1.44,3.21-3.22,3.21-3.22-1.44-3.22-3.21,1.44-3.22,3.22-3.22ZM17.07,10.93c-1.77,0-3.22-1.44-3.22-3.21s1.44-3.22,3.22-3.22,3.22,1.44,3.22,3.22-1.44,3.21-3.22,3.21Zm0,58.62c-1.77,0-3.22-1.44-3.22-3.22s1.44-3.21,3.22-3.21,3.22,1.44,3.22,3.21-1.44,3.22-3.22,3.22Zm50.19-6.43c1.77,0,3.22,1.44,3.22,3.21s-1.44,3.22-3.22,3.22-3.22-1.44-3.22-3.22,1.44-3.21,3.22-3.21ZM7.72,40.24c-1.77,0-3.22-1.44-3.22-3.22s1.44-3.22,3.22-3.22,3.22,1.44,3.22,3.22-1.44,3.22-3.22,3.22Zm34.45,8.73c-6.59,0-11.95-5.36-11.95-11.95s5.36-11.95,11.95-11.95,11.95,5.36,11.95,11.95-5.36,11.95-11.95,11.95Zm34.45-8.73c-1.77,0-3.22-1.44-3.22-3.22s1.44-3.22,3.22-3.22,3.22,1.44,3.22,3.22-1.44,3.22-3.22,3.22Z"/>
  </g>
</svg>