<?xml version="1.0" encoding="UTF-8"?>
<svg id="Layer_2" data-name="Layer 2" xmlns="http://www.w3.org/2000/svg" viewBox="0 0 88.9 80.88">
  <defs>
    <style>
      .cls-1 {
        fill: #231f20;
      }
    </style>
  </defs>
  <g id="Layer_1-2" data-name="Layer 1">
    <path class="cls-1" d="M25.76,11.79c1.61,0,2.92-1.31,2.92-2.92s-1.31-2.92-2.92-2.92-2.92,1.31-2.92,2.92,1.31,2.92,2.92,2.92Zm8.58,0c1.61,0,2.92-1.31,2.92-2.92s-1.31-2.92-2.92-2.92-2.92,1.31-2.92,2.92,1.31,2.92,2.92,2.92Zm8.58,0c1.61,0,2.92-1.31,2.92-2.92s-1.31-2.92-2.92-2.92-2.92,1.31-2.92,2.92,1.31,2.92,2.92,2.92Zm36.22,45.32v-5.55c0-4.39-3.57-7.97-7.97-7.97h-24.48v-5.5h24.06c1.24,0,2.25-1.01,2.25-2.25V2.25c0-1.24-1.01-2.25-2.25-2.25H18.14c-1.24,0-2.25,1.01-2.25,2.25V35.83c0,1.24,1.01,2.25,2.25,2.25h24.06v5.5H17.72c-4.39,0-7.97,3.58-7.97,7.97v5.55c-5.54,1.06-9.75,5.93-9.75,11.77,0,6.62,5.38,12,12,12s12-5.38,12-12c0-5.85-4.21-10.71-9.75-11.77v-5.55c0-1.91,1.56-3.47,3.47-3.47h24.48v9.02c-5.54,1.06-9.75,5.93-9.75,11.77,0,6.62,5.38,12,12,12s12-5.38,12-12c0-5.85-4.21-10.71-9.75-11.77v-9.02h24.48c1.91,0,3.47,1.56,3.47,3.47v5.55c-5.54,1.06-9.75,5.93-9.75,11.77,0,6.62,5.38,12,12,12s12-5.38,12-12c0-5.85-4.21-10.71-9.75-11.77ZM68.51,4.5V13.06H20.39V4.5h48.12ZM20.39,17.56h48.12v16.02H20.39V17.56Zm-.89,51.31c0,4.14-3.36,7.5-7.5,7.5s-7.5-3.36-7.5-7.5,3.36-7.5,7.5-7.5,7.5,3.36,7.5,7.5Zm32.45,0c0,4.14-3.36,7.5-7.5,7.5s-7.5-3.36-7.5-7.5,3.36-7.5,7.5-7.5,7.5,3.36,7.5,7.5Zm24.95,7.5c-4.14,0-7.5-3.36-7.5-7.5s3.36-7.5,7.5-7.5,7.5,3.36,7.5,7.5-3.36,7.5-7.5,7.5Z"/>
  </g>
</svg>