<?xml version="1.0" encoding="UTF-8"?>
<svg id="Layer_2" data-name="Layer 2" xmlns="http://www.w3.org/2000/svg" viewBox="0 0 100.83 84.05">
  <defs>
    <style>
      .cls-1 {
        fill: #231f20;
      }
    </style>
  </defs>
  <g id="Layer_1-2" data-name="Layer 1">
    <path class="cls-1" d="M100.17,80.21l-12.78-12.73V25.58c0-1.24-1.01-2.25-2.25-2.25h-9.25C74.74,10.28,63.76,0,50.42,0S26.09,10.28,24.95,23.33H15.69c-1.24,0-2.25,1.01-2.25,2.25v41.9L.66,80.21c-.64,.64-.84,1.61-.49,2.45,.35,.84,1.17,1.39,2.08,1.39H98.58c.91,0,1.73-.55,2.08-1.39,.35-.84,.15-1.81-.49-2.45ZM50.42,4.5c11.62,0,21.08,9.46,21.08,21.08s-9.46,21.08-21.08,21.08-21.08-9.46-21.08-21.08S38.79,4.5,50.42,4.5ZM17.94,27.83h7c1.14,13.05,12.12,23.33,25.47,23.33s24.32-10.28,25.47-23.33h7v38.33H17.94V27.83ZM7.7,79.55l8.92-8.89H84.21l8.92,8.89H7.7ZM41.62,36.16c1.24,0,2.25-1.01,2.25-2.25v-5.37h4.44v5.37c0,1.24,1.01,2.25,2.25,2.25s2.25-1.01,2.25-2.25v-12.18c0-3.7-3.01-6.72-6.72-6.72s-6.72,3.01-6.72,6.72v12.18c0,1.24,1.01,2.25,2.25,2.25Zm4.47-16.65c1.22,0,2.22,1,2.22,2.22v2.31h-4.44v-2.31c0-1.22,1-2.22,2.22-2.22Zm10.88,14.4V17.26c0-1.24,1.01-2.25,2.25-2.25s2.25,1.01,2.25,2.25v16.65c0,1.24-1.01,2.25-2.25,2.25s-2.25-1.01-2.25-2.25Z"/>
  </g>
</svg>