<?xml version="1.0" encoding="UTF-8"?>
<svg id="Layer_2" data-name="Layer 2" xmlns="http://www.w3.org/2000/svg" viewBox="0 0 89.4 77.53">
  <defs>
    <style>
      .cls-1 {
        fill: #231f20;
      }
    </style>
  </defs>
  <g id="Layer_1-2" data-name="Layer 1">
    <path class="cls-1" d="M89.31,62.86c-.55-3.74-3.56-6.62-7.32-7.01-.11-.01-.22-.02-.32-.01l-9.35,.38c-3.09,.12-6.15-.03-9.19-.35,.81-1.06,1.36-2.38,1.58-3.99,.55-3.99-2.1-7.94-6.17-9.18l-16.6-4.95c-6.31-1.94-13-1.29-18.83,1.8l-6.07,3.22c-.78-3.94-4.26-6.93-8.43-6.93-4.74,0-8.6,3.86-8.6,8.6v24.49c0,4.74,3.86,8.6,8.6,8.6s8.28-3.59,8.55-8.09c1.74-.31,3.44-.89,5-1.71,1.39-.74,3.06-.9,4.57-.44l6.22,1.9c9.52,2.92,19.3,4.39,29.19,4.39,2.76,0,5.53-.11,8.31-.34l11.39-.94c2.26-.19,4.37-1.32,5.78-3.1,1.41-1.78,2.03-4.09,1.7-6.34Zm-76.61,6.07c0,2.26-1.84,4.1-4.1,4.1s-4.1-1.84-4.1-4.1v-24.49c0-2.26,1.84-4.1,4.1-4.1s4.1,1.84,4.1,4.1v24.49Zm71.38-2.53c-.65,.82-1.59,1.32-2.63,1.41l-11.39,.94c-12.13,1.01-24.17-.29-35.81-3.86l-6.22-1.91c-2.65-.81-5.56-.53-8,.76-.91,.48-1.86,.82-2.84,1.06v-17.04l8.01-4.25c4.77-2.53,10.24-3.05,15.42-1.47l16.6,4.95c1.97,.6,3.26,2.44,3.01,4.26-.15,1.12-.52,1.89-1.1,2.3-.75,.54-2.06,.64-3.69,.31l-12.86-3.15c-.13-.03-.25,0-.38-.02-.14-.01-.28-.03-.42-.02-.15,.02-.29,.07-.43,.12-.13,.04-.27,.08-.39,.14-.12,.07-.22,.16-.32,.25-.12,.1-.24,.18-.33,.3-.09,.11-.14,.24-.21,.37-.06,.11-.14,.2-.18,.32,0,.03,0,.06-.01,.09,0,.03-.03,.05-.04,.08-.03,.12,0,.24-.01,.36-.01,.15-.04,.3-.02,.45,.02,.15,.07,.28,.12,.41,.04,.14,.08,.27,.15,.4,.07,.13,.17,.23,.26,.34,.09,.11,.18,.23,.29,.32,.11,.09,.25,.15,.38,.22,.11,.06,.2,.14,.32,.18l6.83,2.25c7.86,2.59,16.04,3.73,24.3,3.4l9.17-.37c1.65,.23,2.95,1.52,3.19,3.17,.15,1.04-.12,2.06-.77,2.88ZM49.58,33.5c1.24,0,2.25-1.01,2.25-2.25v-11.15c0-3.5-2.84-6.34-6.34-6.34s-6.34,2.84-6.34,6.34v11.15c0,1.24,1.01,2.25,2.25,2.25s2.25-1.01,2.25-2.25v-4.73h3.68v4.73c0,1.24,1.01,2.25,2.25,2.25Zm-5.93-11.48v-1.93c0-1.02,.83-1.84,1.84-1.84s1.84,.83,1.84,1.84v1.93h-3.68Zm13.86-8.27c1.24,0,2.25,1.01,2.25,2.25v15.25c0,1.24-1.01,2.25-2.25,2.25s-2.25-1.01-2.25-2.25V16c0-1.24,1.01-2.25,2.25-2.25ZM27.27,31.75c-.95-2.6-1.44-5.33-1.44-8.13C25.83,10.6,36.43,0,49.45,0s23.62,10.6,23.62,23.62c0,6.41-2.53,12.41-7.11,16.9-.44,.43-1,.64-1.57,.64s-1.17-.23-1.61-.68c-.87-.89-.85-2.31,.04-3.18,3.71-3.63,5.76-8.49,5.76-13.68,0-10.54-8.58-19.12-19.12-19.12S30.33,13.08,30.33,23.62c0,2.26,.39,4.48,1.16,6.58,.43,1.17-.17,2.46-1.34,2.89s-2.46-.17-2.89-1.34Z"/>
  </g>
</svg>