<?xml version="1.0" encoding="UTF-8"?>
<svg id="Layer_2" data-name="Layer 2" xmlns="http://www.w3.org/2000/svg" viewBox="0 0 89.5 81.69">
  <defs>
    <style>
      .cls-1 {
        fill: #231f20;
      }
    </style>
  </defs>
  <g id="Layer_1-2" data-name="Layer 1">
    <path class="cls-1" d="M40.53,53.53h-10.51V27.51h10.51c1.24,0,2.25-1.01,2.25-2.25V12.85c0-4.82-2.18-8.72-6.15-10.98-4.39-2.51-10.25-2.48-14.58,.07-3.01,1.78-4.9,4.5-5.46,7.82-4.34,.27-8.09,2.92-9.93,7.19-1.79,4.15-1.26,8.62,1.25,12.13C2.04,32.16-.32,38.38,.03,43.83c.36,5.44,3.47,11.3,9.64,13.37-3.41,9.9,.39,15.93,3.12,18.74,3.58,3.69,9.07,5.75,14.45,5.75,2.46,0,4.9-.43,7.12-1.33,5.35-2.17,8.42-6.66,8.42-12.33v-12.25c0-1.24-1.01-2.25-2.25-2.25Zm-2.25,14.5c0,4.86-3.05,7.12-5.61,8.16-5.38,2.18-12.69,.7-16.64-3.38-3.79-3.91-4.23-9.55-1.25-16.3,.28-.65,.25-1.39-.1-2.01-.35-.62-.96-1.04-1.66-1.13-5.47-.73-8.21-5.46-8.49-9.83-.28-4.22,1.62-9.74,7.88-11.42,.82-.22,1.44-.88,1.62-1.71,.17-.83-.13-1.68-.79-2.22-3.58-2.89-3.55-6.91-2.45-9.48,.93-2.16,3.17-4.5,6.54-4.5,.33,0,.68,.02,1.03,.07,.64,.08,1.3-.11,1.79-.54,.49-.44,.77-1.06,.76-1.72-.05-3.45,1.84-5.29,3.43-6.23,2.93-1.73,7.07-1.75,10.06-.04,1.77,1.01,3.88,3.06,3.88,7.08v10.16h-10.51c-1.24,0-2.25,1.01-2.25,2.25v30.52c0,1.24,1.01,2.25,2.25,2.25h10.51v10ZM81.59,29.07c2.52-3.51,3.04-7.98,1.25-12.13-1.84-4.27-5.6-6.92-9.93-7.19-.56-3.31-2.45-6.04-5.46-7.82-4.32-2.55-10.19-2.58-14.58-.07-3.97,2.26-6.15,6.16-6.15,10.98v12.41c0,1.24,1.01,2.25,2.25,2.25h10.51v26.02h-10.51c-1.24,0-2.25,1.01-2.25,2.25v12.25c0,5.67,3.07,10.16,8.42,12.33,2.22,.9,4.66,1.33,7.12,1.33,5.37,0,10.86-2.05,14.45-5.75,2.73-2.81,6.53-8.85,3.12-18.74,6.17-2.07,9.29-7.92,9.64-13.37,.35-5.45-2-11.67-7.87-14.76Zm-5.11,24.3c-.7,.09-1.32,.51-1.66,1.13-.35,.62-.38,1.36-.1,2.01,2.98,6.75,2.55,12.39-1.25,16.3-3.96,4.08-11.26,5.56-16.64,3.38-2.56-1.04-5.61-3.29-5.61-8.16v-10h10.51c1.24,0,2.25-1.01,2.25-2.25V25.26c0-1.24-1.01-2.25-2.25-2.25h-10.51V12.85c0-4.02,2.11-6.07,3.88-7.08,2.99-1.71,7.13-1.7,10.06,.04,1.59,.94,3.47,2.78,3.43,6.23,0,.65,.27,1.28,.76,1.72,.49,.43,1.15,.63,1.79,.54,3.95-.53,6.55,2.05,7.57,4.43,1.11,2.56,1.13,6.59-2.45,9.48-.66,.53-.96,1.39-.79,2.22,.18,.83,.8,1.49,1.62,1.71,6.25,1.68,8.15,7.2,7.88,11.42-.28,4.37-3.02,9.1-8.49,9.83Zm-29.55-16.17c0-3.36-2.73-6.09-6.09-6.09s-6.1,2.73-6.1,6.09v10.48c0,1.24,1.01,2.25,2.25,2.25s2.25-1.01,2.25-2.25v-4.31h3.19v4.31c0,1.24,1.01,2.25,2.25,2.25s2.25-1.01,2.25-2.25v-10.48Zm-7.69,1.68v-1.68c0-.88,.72-1.59,1.6-1.59s1.59,.71,1.59,1.59v1.68h-3.19Zm12.89,11.06c-1.24,0-2.25-1.01-2.25-2.25v-14.32c0-1.24,1.01-2.25,2.25-2.25s2.25,1.01,2.25,2.25v14.32c0,1.24-1.01,2.25-2.25,2.25Z"/>
  </g>
</svg>