<?xml version="1.0" encoding="UTF-8"?>
<svg id="Layer_2" data-name="Layer 2" xmlns="http://www.w3.org/2000/svg" viewBox="0 0 95.5 64.02">
  <defs>
    <style>
      .cls-1 {
        fill: #231f20;
      }
    </style>
  </defs>
  <g id="Layer_1-2" data-name="Layer 1">
    <path class="cls-1" d="M47.75,0c-12.97,0-23.52,10.6-23.52,23.63,0,4.59,1.32,9.05,3.82,12.9,1.67,2.58,3.22,4.62,4.6,6.42,2.1,2.75,3.62,4.74,3.62,6.24v12.57c0,1.24,1.01,2.25,2.25,2.25h18.46c1.24,0,2.25-1.01,2.25-2.25v-12.57c0-1.53,1.51-3.5,3.61-6.24,1.38-1.8,2.94-3.84,4.6-6.42,2.5-3.85,3.82-8.31,3.82-12.9C71.27,10.6,60.72,0,47.75,0Zm-6.98,59.52v-8.07h13.96v8.07h-13.96Zm22.9-25.43c-1.57,2.43-3.08,4.4-4.4,6.13-1.96,2.56-3.51,4.6-4.18,6.73h-14.67c-.67-2.12-2.22-4.15-4.18-6.72-1.33-1.74-2.83-3.71-4.4-6.14,0,0,0,0,0,0-2.03-3.12-3.1-6.73-3.1-10.45,0-10.55,8.53-19.13,19.02-19.13s19.02,8.58,19.02,19.13c0,3.72-1.07,7.33-3.1,10.45ZM43.44,14.71c-3.49,0-6.34,2.84-6.34,6.34v11.14c0,1.24,1.01,2.25,2.25,2.25s2.25-1.01,2.25-2.25v-4.72h3.67v4.72c0,1.24,1.01,2.25,2.25,2.25s2.25-1.01,2.25-2.25v-11.14c0-3.49-2.84-6.34-6.34-6.34Zm-1.84,8.26v-1.92c0-1.01,.82-1.84,1.84-1.84s1.84,.82,1.84,1.84v1.92h-3.67Zm16.09-6.01v15.22c0,1.24-1.01,2.25-2.25,2.25s-2.25-1.01-2.25-2.25v-15.22c0-1.24,1.01-2.25,2.25-2.25s2.25,1.01,2.25,2.25Zm19.64,11.86h6.12c3.11,0,5.65-2.53,5.65-5.64v-5.68c3.68-1,6.41-4.33,6.41-8.32,0-4.77-3.88-8.66-8.66-8.66s-8.66,3.88-8.66,8.66c0,3.99,2.73,7.33,6.41,8.32v5.68c0,.63-.51,1.14-1.15,1.14h-6.12c-1.24,0-2.25,1.01-2.25,2.25s1.01,2.25,2.25,2.25Zm5.36-19.65c0-2.29,1.86-4.16,4.16-4.16s4.16,1.87,4.16,4.16-1.87,4.16-4.16,4.16-4.16-1.86-4.16-4.16Zm6.41,37.35v-5.68c0-3.11-2.53-5.64-5.65-5.64h-8.49c-1.24,0-2.25,1.01-2.25,2.25s1.01,2.25,2.25,2.25h8.49c.63,0,1.15,.51,1.15,1.14v5.68c-3.68,1-6.41,4.33-6.41,8.32,0,4.77,3.88,8.66,8.66,8.66s8.66-3.88,8.66-8.66c0-3.99-2.73-7.33-6.41-8.32Zm-2.25,12.48c-2.29,0-4.16-1.87-4.16-4.16s1.86-4.16,4.16-4.16,4.16,1.86,4.16,4.16-1.87,4.16-4.16,4.16ZM6.41,17.49v5.68c0,3.11,2.53,5.64,5.65,5.64h6.12c1.24,0,2.25-1.01,2.25-2.25s-1.01-2.25-2.25-2.25h-6.12c-.63,0-1.15-.51-1.15-1.14v-5.68c3.68-1,6.41-4.33,6.41-8.32C17.32,4.4,13.43,.51,8.66,.51S0,4.4,0,9.17c0,3.99,2.73,7.33,6.41,8.32Zm2.25-12.48c2.29,0,4.16,1.87,4.16,4.16s-1.87,4.16-4.16,4.16-4.16-1.86-4.16-4.16,1.86-4.16,4.16-4.16Zm11.88,30.18H12.05c-3.11,0-5.65,2.53-5.65,5.64v5.68c-3.68,1-6.41,4.33-6.41,8.32,0,4.77,3.88,8.66,8.66,8.66s8.66-3.88,8.66-8.66c0-3.99-2.73-7.33-6.41-8.32v-5.68c0-.63,.51-1.14,1.15-1.14h8.49c1.24,0,2.25-1.01,2.25-2.25s-1.01-2.25-2.25-2.25Zm-7.72,19.65c0,2.29-1.87,4.16-4.16,4.16s-4.16-1.87-4.16-4.16,1.86-4.16,4.16-4.16,4.16,1.86,4.16,4.16Z"/>
  </g>
</svg>