<?xml version="1.0" encoding="UTF-8"?>
<svg id="Layer_2" data-name="Layer 2" xmlns="http://www.w3.org/2000/svg" viewBox="0 0 96.11 96.11">
  <defs>
    <style>
      .cls-1 {
        fill: #231f20;
      }
    </style>
  </defs>
  <g id="Layer_1-2" data-name="Layer 1">
    <path class="cls-1" d="M48.06,24.67c-12.9,0-23.39,10.49-23.39,23.39s10.49,23.39,23.39,23.39,23.39-10.49,23.39-23.39-10.49-23.39-23.39-23.39Zm0,42.27c-10.42,0-18.89-8.47-18.89-18.89s8.47-18.89,18.89-18.89,18.89,8.47,18.89,18.89-8.47,18.89-18.89,18.89Zm-3.92-28.68c-3.47,0-6.3,2.83-6.3,6.3v11.04c0,1.24,1.01,2.25,2.25,2.25s2.25-1.01,2.25-2.25v-4.65h3.6v4.65c0,1.24,1.01,2.25,2.25,2.25s2.25-1.01,2.25-2.25v-11.04c0-3.47-2.83-6.3-6.3-6.3Zm-1.8,8.18v-1.88c0-.99,.81-1.8,1.8-1.8s1.8,.81,1.8,1.8v1.88h-3.6Zm15.94-5.93v15.08c0,1.24-1.01,2.25-2.25,2.25s-2.25-1.01-2.25-2.25v-15.08c0-1.24,1.01-2.25,2.25-2.25s2.25,1.01,2.25,2.25Zm-12.34-23.95v2.54c0,1.24,1.01,2.25,2.25,2.25s2.25-1.01,2.25-2.25v-2.54c3.57-.99,6.2-4.23,6.2-8.11,0-4.66-3.79-8.45-8.45-8.45s-8.45,3.79-8.45,8.45c0,3.88,2.64,7.12,6.2,8.11Zm2.25-12.06c2.18,0,3.95,1.77,3.95,3.95s-1.77,3.95-3.95,3.95-3.95-1.77-3.95-3.95,1.77-3.95,3.95-3.95ZM20.14,28.41c1.44,0,2.86-.4,4.14-1.12l1.8,1.8c.44,.44,1.02,.66,1.59,.66s1.15-.22,1.59-.66c.88-.88,.88-2.3,0-3.18l-1.8-1.8c.71-1.26,1.13-2.66,1.13-4.15,0-2.26-.88-4.38-2.48-5.98-3.19-3.19-8.76-3.19-11.95,0-1.6,1.6-2.48,3.72-2.48,5.98s.88,4.38,2.48,5.98c1.65,1.65,3.81,2.47,5.98,2.47Zm-2.8-11.25c.77-.77,1.78-1.16,2.8-1.16s2.02,.39,2.79,1.16,1.16,1.74,1.16,2.8-.41,2.05-1.16,2.79c-1.54,1.54-4.05,1.54-5.59,0-.75-.75-1.16-1.74-1.16-2.79s.41-2.05,1.16-2.8Zm-.78,33.01h2.54c1.24,0,2.25-1.01,2.25-2.25s-1.01-2.25-2.25-2.25h-2.54c-.99-3.57-4.23-6.2-8.11-6.2-4.66,0-8.45,3.79-8.45,8.45s3.79,8.45,8.45,8.45c3.88,0,7.12-2.64,8.11-6.2Zm-8.11,1.7c-2.18,0-3.95-1.77-3.95-3.95s1.77-3.95,3.95-3.95,3.95,1.77,3.95,3.95-1.77,3.95-3.95,3.95Zm17.45,14.96l-1.8,1.8c-3.22-1.82-7.38-1.39-10.12,1.35-1.6,1.6-2.48,3.72-2.48,5.98s.88,4.38,2.48,5.98,3.72,2.48,5.98,2.48,4.38-.88,5.98-2.48c2.74-2.74,3.17-6.9,1.35-10.12l1.8-1.8c.88-.88,.88-2.3,0-3.18s-2.3-.88-3.18,0Zm-3.15,11.92c-1.54,1.54-4.05,1.54-5.59,0s-1.54-4.05,0-5.59c.77-.77,1.78-1.16,2.8-1.16s2.02,.39,2.79,1.16c1.54,1.54,1.54,4.05,0,5.59Zm27.42,.78v-2.54c0-1.24-1.01-2.25-2.25-2.25s-2.25,1.01-2.25,2.25v2.54c-3.57,.99-6.2,4.23-6.2,8.11,0,4.66,3.79,8.45,8.45,8.45s8.45-3.79,8.45-8.45c0-3.88-2.64-7.12-6.2-8.11Zm-2.25,12.06c-2.18,0-3.95-1.77-3.95-3.95s1.77-3.95,3.95-3.95,3.95,1.77,3.95,3.95-1.77,3.95-3.95,3.95Zm23.9-22.79l-1.8-1.8c-.88-.88-2.3-.88-3.18,0-.88,.88-.88,2.3,0,3.18l1.8,1.8c-1.82,3.22-1.39,7.38,1.35,10.12,1.6,1.6,3.72,2.48,5.98,2.48s4.38-.88,5.98-2.48c3.3-3.3,3.3-8.66,0-11.95-2.74-2.74-6.9-3.17-10.12-1.35Zm6.94,10.12c-1.54,1.54-4.05,1.54-5.59,0s-1.54-4.05,0-5.59c.77-.77,1.78-1.16,2.8-1.16s2.03,.39,2.8,1.16c1.54,1.54,1.54,4.05,0,5.59Zm8.89-39.22c-3.88,0-7.12,2.64-8.11,6.2h-2.54c-1.24,0-2.25,1.01-2.25,2.25s1.01,2.25,2.25,2.25h2.54c.99,3.57,4.23,6.2,8.11,6.2,4.66,0,8.45-3.79,8.45-8.45s-3.79-8.45-8.45-8.45Zm0,12.41c-2.18,0-3.95-1.77-3.95-3.95s1.77-3.95,3.95-3.95,3.95,1.77,3.95,3.95-1.77,3.95-3.95,3.95Zm-19.04-22.21c.58,0,1.15-.22,1.59-.66l1.8-1.8c1.29,.73,2.71,1.12,4.14,1.12,2.17,0,4.33-.82,5.98-2.47,3.29-3.29,3.3-8.66,0-11.95-3.3-3.3-8.66-3.3-11.96,0-1.6,1.6-2.48,3.72-2.48,5.98,0,1.48,.41,2.89,1.13,4.15l-1.8,1.8c-.88,.88-.88,2.3,0,3.18,.44,.44,1.02,.66,1.59,.66Zm4.74-12.58c.77-.77,1.78-1.16,2.8-1.16s2.02,.39,2.8,1.16c1.54,1.54,1.54,4.05,0,5.59s-4.1,1.49-5.59,0c-.75-.75-1.16-1.74-1.16-2.79s.41-2.05,1.16-2.8Z"/>
  </g>
</svg>