<?xml version="1.0" encoding="UTF-8"?>
<svg id="Layer_2" data-name="Layer 2" xmlns="http://www.w3.org/2000/svg" viewBox="0 0 75.07 75.09">
  <defs>
    <style>
      .cls-1 {
        fill: #231f20;
      }
    </style>
  </defs>
  <g id="Layer_1-2" data-name="Layer 1">
    <path class="cls-1" d="M69.66,5.41c-7.12-7.12-19.41-7-32.12-.9C24.82-1.58,12.53-1.71,5.41,5.41-1.71,12.53-1.59,24.82,4.51,37.54c-6.1,12.72-6.22,25,.9,32.13,3.68,3.68,8.73,5.43,14.5,5.43,5.41,0,11.47-1.57,17.62-4.52,6.15,2.95,12.21,4.52,17.62,4.52,5.77,0,10.83-1.76,14.5-5.43,7.12-7.12,7-19.41,.9-32.13,6.1-12.72,6.22-25-.9-32.13Zm-22.39,.27c2.85-.77,5.54-1.15,7.99-1.15,4.67,0,8.52,1.37,11.21,4.06,5.14,5.14,5.29,14.13,1.39,23.88-2.9-4.82-6.64-9.61-11.15-14.12-4.49-4.49-9.26-8.21-14.06-11.11,1.55-.61,3.09-1.15,4.62-1.57Zm18.26,31.86c-2.88,5.43-6.92,10.93-11.99,16-5.07,5.07-10.56,9.1-15.98,11.98-5.56-2.92-11.05-7-16.03-11.98s-9.11-10.58-11.99-16c2.88-5.43,6.92-10.93,11.99-16s10.44-9.04,15.99-11.96c5.43,2.88,10.93,6.88,16.01,11.96,5.08,5.08,9.11,10.58,11.99,16ZM8.59,8.59c2.8-2.8,6.73-4.12,11.31-4.12,3.84,0,8.13,.96,12.58,2.73-4.82,2.9-9.62,6.64-14.13,11.15-4.51,4.51-8.25,9.3-11.15,14.12-3.9-9.76-3.75-18.75,1.39-23.89Zm0,57.89c-5.14-5.14-5.28-14.13-1.39-23.89,2.9,4.82,6.64,9.61,11.15,14.12,4.51,4.51,9.31,8.24,14.13,11.14-9.76,3.9-18.75,3.76-23.89-1.38Zm57.89,0c-4.11,4.1-10.93,5.14-19.21,2.91-1.53-.41-3.07-.96-4.62-1.57,4.8-2.9,9.58-6.61,14.07-11.11,4.51-4.51,8.25-9.3,11.15-14.12,3.9,9.76,3.75,18.75-1.39,23.88ZM23.61,28.76v17.53c0,4.93,7,7.51,13.91,7.51s13.91-2.58,13.91-7.51V28.76c0-9.86-27.81-9.86-27.81,0Zm23.31,8.77c0,.77-3.23,3.01-9.41,3.01s-9.41-2.24-9.41-3.01v-3.11c2.6,1.22,6.01,1.85,9.41,1.85s6.81-.63,9.41-1.85v3.11Zm-9.41-11.77c6.17,0,9.41,2.24,9.41,3.01s-3.23,3.01-9.41,3.01-9.41-2.24-9.41-3.01,3.23-3.01,9.41-3.01Zm0,23.55c-6.17,0-9.41-2.24-9.41-3.01v-3.11c2.6,1.22,6.01,1.85,9.41,1.85s6.81-.63,9.41-1.85v3.11c0,.77-3.23,3.01-9.41,3.01Z"/>
  </g>
</svg>