<?xml version="1.0" encoding="UTF-8"?>
<svg id="Layer_2" data-name="Layer 2" xmlns="http://www.w3.org/2000/svg" viewBox="0 0 71.77 67.16">
  <defs>
    <style>
      .cls-1 {
        fill: #231f20;
      }
    </style>
  </defs>
  <g id="Layer_1-2" data-name="Layer 1">
    <path class="cls-1" d="M2.25,46.5c-.64,0-1.27-.27-1.72-.8-.8-.95-.68-2.37,.27-3.17,4.15-3.51,7.64-15.44,8.64-19.74C14.54,5.84,32.34-3.71,49.15,1.36c7.38,2.23,13.34,6.36,17.24,11.96,.71,1.02,.46,2.42-.56,3.13-1.02,.71-2.42,.46-3.13-.56-4.19-6.02-10.39-8.88-14.85-10.23C33.42,1.31,18.13,9.51,13.78,23.95c-.36,1.59-4.04,16.91-10.08,22.02-.42,.36-.94,.53-1.45,.53Zm63.04,12.06c6.14-14.12,7.92-26.26,5.3-36.08-.32-1.2-1.55-1.91-2.75-1.59-1.2,.32-1.91,1.55-1.59,2.75,2.35,8.81,.64,19.96-5.08,33.13-.5,1.14,.03,2.46,1.17,2.96,.29,.13,.6,.19,.9,.19,.87,0,1.7-.51,2.07-1.35Zm-55.96-5.94c5.82-4.92,8.74-14.02,10.88-20.67,.71-2.2,1.32-4.09,1.87-5.42,.98-2.09,2.11-3.96,3.35-5.57,.76-.98,.58-2.4-.4-3.16-.98-.76-2.4-.58-3.16,.4-1.45,1.87-2.75,4.03-3.9,6.5-.67,1.59-1.31,3.58-2.05,5.88-1.97,6.13-4.67,14.53-9.5,18.61-.95,.8-1.07,2.22-.27,3.17,.45,.53,1.08,.8,1.72,.8,.51,0,1.03-.17,1.45-.53Zm41.62,13.61c4.23-5.83,14.4-26.62,9.74-42.08-2.08-6.9-6.76-11.74-13.92-14.41-2.93-1.09-10.37-2.1-17.49,1.93-1.08,.61-1.46,1.98-.85,3.07,.62,1.08,1.99,1.46,3.07,.85,5.9-3.33,11.9-2.31,13.71-1.63,5.85,2.18,9.5,5.94,11.18,11.49,4.12,13.66-5.34,33.01-9.07,38.14-.73,1.01-.51,2.41,.5,3.14,.4,.29,.86,.43,1.32,.43,.7,0,1.38-.32,1.82-.93Zm-36-6.96c7.86-6.64,11.29-17.5,13.56-24.68,1.82-5.75,4.79-9.94,8.38-11.79,2.11-1.09,3.95-1.12,4.99-.79,3.89,1.21,5.69,5.39,5.33,12.43-.06,1.24,.89,2.3,2.13,2.36,1.29,.04,2.3-.89,2.36-2.13,.59-11.65-4.29-15.65-8.47-16.95-2.48-.8-5.54-.4-8.42,1.08-3.29,1.7-7.81,5.59-10.6,14.44-2.11,6.69-5.3,16.79-12.17,22.6-.95,.8-1.07,2.22-.27,3.17,.45,.53,1.08,.8,1.72,.8,.51,0,1.03-.17,1.45-.53Zm28.95,1.84c1.64-2.26,4.38-8.79,6.12-15.8,.3-1.21-.44-2.43-1.64-2.73-1.2-.3-2.43,.44-2.73,1.64-1.68,6.75-4.21,12.61-5.4,14.24-.73,1-.51,2.41,.5,3.14,.4,.29,.86,.43,1.32,.43,.7,0,1.38-.32,1.82-.93Zm-17.97,2.61c8.61-6.56,15.43-23.4,15.82-31.56,.06-1.24-.9-2.3-2.14-2.36-1.25-.06-2.3,.9-2.36,2.14-.35,7.17-6.78,22.66-14.06,28.2-.99,.75-1.18,2.17-.43,3.15,.44,.58,1.11,.89,1.79,.89,.48,0,.96-.15,1.36-.46Z"/>
  </g>
</svg>