<?xml version="1.0" encoding="UTF-8"?>
<svg id="Layer_2" data-name="Layer 2" xmlns="http://www.w3.org/2000/svg" viewBox="0 0 78.91 78.04">
  <defs>
    <style>
      .cls-1 {
        fill: #231f20;
      }
    </style>
  </defs>
  <g id="Layer_1-2" data-name="Layer 1">
    <path class="cls-1" d="M71.73,29.53c2.82-3.57,3.48-8.25,1.61-12.59-1.84-4.27-5.59-6.92-9.92-7.19-.57-3.32-2.46-6.04-5.48-7.82-4.33-2.55-10.2-2.57-14.59-.06-1.6,.92-2.9,2.11-3.89,3.52-.99-1.41-2.29-2.6-3.89-3.52-4.4-2.51-10.26-2.49-14.59,.06-3.02,1.78-4.91,4.5-5.48,7.82-4.33,.27-8.07,2.92-9.92,7.19-1.87,4.34-1.21,9.02,1.61,12.59C2.18,33.26-.6,39.35,.11,45.48c.62,5.26,3.7,9.39,8.43,11.43-2.02,5.22-1.47,10.39,1.61,14.47,3.15,4.18,8.6,6.66,14.09,6.66,1.26,0,2.53-.13,3.77-.4,5.07-1.11,9.06-4.35,11.45-9.13,2.39,4.78,6.38,8.01,11.45,9.13,1.24,.27,2.51,.4,3.77,.4,5.49,0,10.93-2.48,14.09-6.66,3.08-4.09,3.63-9.25,1.61-14.47,4.72-2.05,7.81-6.17,8.43-11.43,.71-6.12-2.07-12.21-7.07-15.95ZM36.91,62.22c-1.3,6-4.81,9.92-9.87,11.03-4.98,1.09-10.45-.79-13.3-4.57-1.76-2.33-3.21-6.31-.13-12.02,.33-.61,.36-1.34,.08-1.97-.28-.64-.84-1.11-1.51-1.27-4.32-1.08-7.09-4.16-7.59-8.45-.51-4.36,1.52-10.07,7.2-13.01,.68-.35,1.13-1.02,1.2-1.77,.08-.76-.23-1.5-.83-1.98-3.58-2.89-3.56-6.91-2.45-9.48,.93-2.16,3.16-4.49,6.51-4.49,.33,0,.68,.02,1.04,.07,.65,.08,1.3-.11,1.79-.54,.49-.43,.77-1.06,.76-1.71-.04-3.45,1.85-5.3,3.44-6.23,2.94-1.73,7.09-1.74,10.08-.03,1.77,1.01,3.88,3.06,3.88,7.07v3.41h-14.32c-1.24,0-2.25,1.01-2.25,2.25v4.94c-3.15,.97-5.46,3.87-5.46,7.34,0,4.25,3.46,7.71,7.71,7.71s7.71-3.46,7.71-7.71c0-3.46-2.31-6.37-5.46-7.34v-2.69h12.07v21.29h-10.89c-1.24,0-2.25,1.01-2.25,2.25v5.01c-3.15,.97-5.46,3.87-5.46,7.34,0,4.25,3.46,7.71,7.71,7.71s7.71-3.46,7.71-7.71c0-3.46-2.31-6.37-5.46-7.34v-2.76h8.64v13c0,.87-.1,1.77-.29,2.67ZM22.88,27.58c1.77,0,3.21,1.44,3.21,3.21s-1.44,3.21-3.21,3.21-3.21-1.44-3.21-3.21,1.44-3.21,3.21-3.21Zm3.43,25.85c1.77,0,3.21,1.44,3.21,3.21s-1.44,3.21-3.21,3.21-3.21-1.44-3.21-3.21,1.44-3.21,3.21-3.21Zm48.02-8.48c-.5,4.29-3.27,7.37-7.59,8.45-.67,.17-1.23,.64-1.51,1.27-.28,.63-.25,1.36,.08,1.98,3.08,5.71,1.63,9.69-.13,12.02-2.86,3.79-8.32,5.67-13.3,4.57-5.06-1.11-8.57-5.03-9.87-11.03-.03-.14-.02-.28-.05-.43h14.08c1.24,0,2.25-1.01,2.25-2.25v-4.94c3.15-.97,5.46-3.87,5.46-7.34,0-4.25-3.46-7.71-7.71-7.71s-7.71,3.46-7.71,7.71c0,3.46,2.31,6.37,5.46,7.34v2.69h-12.08v-21.28h10.89c1.24,0,2.25-1.01,2.25-2.25v-5.01c3.15-.97,5.46-3.87,5.46-7.34,0-4.25-3.46-7.71-7.71-7.71s-7.71,3.46-7.71,7.71c0,3.46,2.31,6.37,5.46,7.34v2.76h-8.64V12.85c0-4.01,2.11-6.06,3.88-7.07,3-1.71,7.14-1.7,10.08,.03,1.59,.94,3.48,2.78,3.44,6.23,0,.65,.27,1.28,.76,1.71,.49,.44,1.16,.63,1.79,.54,3.93-.54,6.52,2.04,7.55,4.42,1.11,2.57,1.13,6.59-2.45,9.47-.59,.48-.9,1.22-.83,1.98,.08,.76,.53,1.42,1.2,1.77,5.68,2.94,7.71,8.65,7.2,13.01Zm-18.3,5.52c-1.77,0-3.21-1.44-3.21-3.21s1.44-3.21,3.21-3.21,3.21,1.44,3.21,3.21-1.44,3.21-3.21,3.21Zm-3.43-25.85c-1.77,0-3.21-1.44-3.21-3.21s1.44-3.21,3.21-3.21,3.21,1.44,3.21,3.21-1.44,3.21-3.21,3.21Z"/>
  </g>
</svg>