<?xml version="1.0" encoding="UTF-8"?>
<svg id="Layer_2" data-name="Layer 2" xmlns="http://www.w3.org/2000/svg" viewBox="0 0 77.5 77.5">
  <defs>
    <style>
      .cls-1 {
        fill: #231f20;
      }
    </style>
  </defs>
  <g id="Layer_1-2" data-name="Layer 1">
    <path class="cls-1" d="M65.33,0H12.17C5.46,0,0,5.46,0,12.17v53.17c0,6.71,5.46,12.17,12.17,12.17h53.17c6.71,0,12.17-5.46,12.17-12.17V12.17c0-6.71-5.46-12.17-12.17-12.17ZM29.84,60.34h6.66v12.66h-6.66v-12.66Zm11.16,0h6.67v12.66h-6.67v-12.66Zm7.62-4.5H28.88l-9.87-17.09,9.87-17.09h19.73l9.87,17.09-9.87,17.09ZM15.12,36.5H4.5v-6.67h14.47l-3.85,6.67Zm-10.62,4.5H15.12l3.85,6.66H4.5v-6.66ZM47.66,17.16h-6.67V4.5h6.67v12.66Zm-11.17,0h-6.66V4.5h6.66v12.66Zm25.88,19.34l-3.85-6.67h14.47v6.67h-10.62Zm0,4.5h10.62v6.66h-14.47l3.85-6.66Zm10.62-28.84v13.17h-17.06l-3.77-6.53V4.5h13.17c4.23,0,7.67,3.44,7.67,7.67ZM12.17,4.5h13.17v14.3l-3.77,6.54H4.5V12.17c0-4.23,3.44-7.67,7.67-7.67Zm-7.67,60.83v-13.17H21.56l3.77,6.54v14.3H12.17c-4.23,0-7.67-3.44-7.67-7.67Zm60.83,7.67h-13.17v-14.3l3.77-6.53h17.06v13.17c0,4.23-3.44,7.67-7.67,7.67ZM34.51,28.35c-3.65,0-6.62,2.97-6.62,6.62v11.92c0,1.24,1.01,2.25,2.25,2.25s2.25-1.01,2.25-2.25v-5.21h4.25v5.21c0,1.24,1.01,2.25,2.25,2.25s2.25-1.01,2.25-2.25v-11.92c0-3.65-2.97-6.62-6.62-6.62Zm-2.12,8.84v-2.22c0-1.17,.95-2.12,2.12-2.12s2.12,.95,2.12,2.12v2.22h-4.25Zm17.22-6.59v16.3c0,1.24-1.01,2.25-2.25,2.25s-2.25-1.01-2.25-2.25V30.6c0-1.24,1.01-2.25,2.25-2.25s2.25,1.01,2.25,2.25Z"/>
  </g>
</svg>