<?xml version="1.0" encoding="UTF-8"?>
<svg id="Layer_2" data-name="Layer 2" xmlns="http://www.w3.org/2000/svg" viewBox="0 0 93.81 86.3">
  <defs>
    <style>
      .cls-1 {
        fill: #231f20;
      }
    </style>
  </defs>
  <g id="Layer_1-2" data-name="Layer 1">
    <path class="cls-1" d="M37.35,86.3H20.46c-1.06,0-1.98-.74-2.2-1.78-.47-2.19-.46-4.51,.03-6.7,.3-1.33,.05-2.75-.68-3.9l-3.13-4.94c-6.16-9.71-10.35-20.36-12.46-31.66L.13,27.21c-.39-2.07,.11-4.23,1.35-5.93,1.24-1.7,3.16-2.82,5.25-3.07,3.49-.42,6.8,1.56,8.06,4.83,.04,.1,.07,.2,.1,.31l1.9,8.2c.59,2.57,1.36,5.08,2.29,7.52,.65-.76,1.6-1.52,2.98-2.11,3.44-1.46,7.61-.07,9.71,3.24l8.25,13.25c3.21,5.07,4.25,11.08,2.94,16.93l-2.05,9.15-1.39,5.1c-.27,.98-1.16,1.66-2.17,1.66Zm-14.92-4.5h13.2l.91-3.34,2.03-9.05c1.05-4.68,.21-9.49-2.36-13.55,0,0,0-.01,0-.01l-8.25-13.24c-.92-1.46-2.7-2.11-4.13-1.5-.87,.37-1.42,.83-1.61,1.37-.26,.71-.04,1.84,.63,3.17l5.75,10.33c.59,1.05,.24,2.39-.8,3.01-1.03,.63-2.37,.33-3.05-.68l-3.58-5.4c-4.13-6.23-7.08-13.08-8.76-20.36l-1.85-8.03c-.56-1.27-1.86-2.03-3.27-1.86-.87,.11-1.64,.56-2.16,1.27-.52,.71-.72,1.58-.56,2.44l1.89,10.11c2.01,10.73,5.99,20.85,11.83,30.08l3.13,4.94c1.36,2.15,1.83,4.81,1.27,7.29-.22,.98-.3,1.99-.25,2.99Zm50.94,4.5h-16.89c-1.02,0-1.9-.68-2.17-1.66l-1.36-5-2.08-9.25c-1.31-5.85-.27-11.87,2.95-16.94l8.24-13.23c2.11-3.33,6.29-4.72,9.72-3.26,1.39,.59,2.33,1.35,2.98,2.11,.93-2.44,1.69-4.96,2.29-7.52l1.9-8.2c.02-.1,.06-.21,.1-.31,1.27-3.27,4.59-5.25,8.06-4.83,2.09,.25,4,1.38,5.25,3.07,1.25,1.7,1.74,3.86,1.35,5.93l-1.89,10.11c-2.11,11.3-6.3,21.95-12.46,31.66l-3.13,4.94c-.73,1.15-.98,2.57-.68,3.9,.49,2.19,.5,4.51,.03,6.7-.22,1.04-1.14,1.78-2.2,1.78Zm-15.17-4.5h13.21c.05-1-.04-2.02-.25-3-.56-2.48-.09-5.14,1.27-7.29l3.13-4.94c5.85-9.22,9.83-19.34,11.83-30.08l1.89-10.11c.16-.87-.04-1.73-.56-2.44-.52-.71-1.29-1.16-2.16-1.27-1.4-.17-2.71,.59-3.27,1.86l-1.85,8.03c-1.68,7.28-4.63,14.13-8.76,20.36l-3.58,5.4c-.67,1.01-2.01,1.31-3.05,.68-1.03-.63-1.38-1.96-.8-3.01l5.79-10.41c.63-1.25,.85-2.38,.59-3.09-.2-.54-.74-1-1.61-1.37-1.43-.61-3.21,.04-4.14,1.51l-8.24,13.23c-2.58,4.07-3.42,8.88-2.37,13.56h0l2.05,9.15,.88,3.24Zm-8.62-41h-5.32c-1,0-1.87-.65-2.16-1.61l-1.38-4.65c-1.05-.46-2.03-1.03-2.95-1.7l-4.72,1.13c-.97,.23-1.97-.2-2.47-1.06l-2.66-4.61c-.5-.86-.37-1.95,.31-2.67l3.33-3.52c-.07-.58-.1-1.15-.1-1.71s.03-1.13,.1-1.71l-3.33-3.52c-.69-.72-.81-1.81-.31-2.67l2.66-4.61c.5-.86,1.5-1.29,2.47-1.06l4.72,1.13c.92-.67,1.9-1.24,2.95-1.7l1.38-4.65c.28-.95,1.16-1.61,2.16-1.61h5.32c1,0,1.87,.65,2.16,1.61l1.38,4.65c1.05,.46,2.03,1.03,2.95,1.7l4.72-1.13c.97-.23,1.97,.2,2.47,1.06l2.66,4.61c.5,.86,.37,1.95-.31,2.67l-3.33,3.52c.07,.58,.1,1.15,.1,1.71s-.03,1.13-.1,1.71l3.33,3.52c.69,.72,.81,1.81,.31,2.67l-2.66,4.61c-.5,.86-1.5,1.29-2.47,1.06l-4.72-1.13c-.92,.68-1.9,1.24-2.95,1.7l-1.38,4.65c-.28,.95-1.16,1.61-2.16,1.61Zm-3.64-4.5h1.96l1.22-4.09c.21-.69,.73-1.24,1.41-1.48,1.3-.45,2.49-1.14,3.52-2.03,.55-.47,1.29-.65,1.99-.48l4.15,.99,.98-1.7-2.93-3.09c-.5-.52-.71-1.26-.58-1.96,.13-.71,.2-1.37,.2-2.04s-.07-1.34-.2-2.04c-.13-.71,.08-1.44,.58-1.97l2.93-3.1-.98-1.7-4.15,.99c-.7,.16-1.44-.01-1.99-.48-1.04-.89-2.22-1.58-3.53-2.04-.68-.24-1.21-.79-1.41-1.48l-1.22-4.09h-1.96l-1.22,4.09c-.21,.69-.73,1.24-1.41,1.48-1.3,.46-2.49,1.14-3.53,2.04-.55,.47-1.29,.65-1.99,.48l-4.15-.99-.98,1.7,2.93,3.1c.5,.52,.71,1.26,.58,1.97-.13,.69-.2,1.38-.2,2.04s.06,1.34,.2,2.04c.13,.71-.08,1.44-.58,1.96l-2.93,3.09,.98,1.7,4.15-.99c.7-.17,1.44,.01,1.99,.48,1.04,.9,2.23,1.58,3.52,2.03,.68,.24,1.21,.79,1.41,1.48l1.22,4.09Zm.98-7.99c-4.36,0-7.91-3.55-7.91-7.91s3.55-7.91,7.91-7.91,7.91,3.55,7.91,7.91-3.55,7.91-7.91,7.91Zm0-11.32c-1.88,0-3.41,1.53-3.41,3.41s1.53,3.41,3.41,3.41,3.41-1.53,3.41-3.41-1.53-3.41-3.41-3.41Z"/>
  </g>
</svg>