<?xml version="1.0" encoding="UTF-8"?>
<svg id="Layer_2" data-name="Layer 2" xmlns="http://www.w3.org/2000/svg" viewBox="0 0 81.14 91.22">
  <defs>
    <style>
      .cls-1 {
        fill: #231f20;
      }
    </style>
  </defs>
  <g id="Layer_1-2" data-name="Layer 1">
    <path class="cls-1" d="M77.14,57.49c-.56-.32-1.15-.55-1.75-.73v-22.3c.6-.18,1.19-.41,1.75-.73,3.82-2.21,5.13-7.11,2.93-10.93-1.07-1.85-2.79-3.17-4.86-3.73-2.06-.55-4.22-.27-6.07,.8-.56,.32-1.05,.72-1.5,1.15l-19.32-11.15c.15-.61,.25-1.23,.25-1.88,0-4.41-3.59-8-8-8s-8,3.59-8,8c0,.65,.1,1.27,.25,1.88L13.5,21.03c-.45-.43-.94-.83-1.5-1.15-1.85-1.07-4.01-1.35-6.07-.8-2.06,.55-3.79,1.88-4.86,3.73-2.2,3.82-.89,8.72,2.93,10.93,.56,.32,1.15,.55,1.75,.72v22.3c-.6,.18-1.19,.4-1.75,.73-3.82,2.2-5.13,7.11-2.93,10.93,1.07,1.85,2.79,3.17,4.86,3.73,.69,.18,1.39,.28,2.08,.28,1.39,0,2.75-.36,3.99-1.08,.56-.32,1.05-.72,1.5-1.15l19.32,11.15c-.15,.61-.25,1.23-.25,1.88,0,4.41,3.59,8,8,8s8-3.59,8-8c0-.65-.1-1.27-.25-1.88l19.32-11.15c.45,.43,.94,.83,1.5,1.15,1.23,.71,2.6,1.08,3.99,1.08,.69,0,1.39-.09,2.08-.28,2.06-.55,3.79-1.88,4.86-3.73,2.21-3.82,.89-8.72-2.93-10.93Zm-9.49,1.16l-15.79-9.12c.43-1.23,.71-2.54,.71-3.92s-.28-2.68-.71-3.92l15.79-9.12c.91,.87,2,1.53,3.24,1.89v22.29c-1.24,.36-2.33,1.02-3.24,1.89Zm-27.08-5.54c-4.14,0-7.5-3.36-7.5-7.5s3.36-7.5,7.5-7.5,7.5,3.36,7.5,7.5-3.36,7.5-7.5,7.5Zm-27.08,5.54c-.93-.89-2.04-1.54-3.24-1.89v-22.31c1.2-.35,2.33-.98,3.26-1.87l15.77,9.11c-.43,1.23-.71,2.54-.71,3.92s.28,2.68,.71,3.92l-15.8,9.12ZM73.14,23.31c1.21,0,2.39,.63,3.04,1.75,.97,1.67,.39,3.82-1.28,4.78-.81,.46-1.75,.59-2.66,.35-.9-.24-1.66-.82-2.13-1.63-.96-1.67-.39-3.82,1.28-4.78,.55-.32,1.15-.47,1.74-.47Zm-7.73,5.37l-15.8,9.12c-1.73-2-4.08-3.44-6.78-3.96V15.64c1.23-.36,2.35-1,3.26-1.86l19.31,11.15c-.3,1.22-.28,2.5,.02,3.75ZM40.57,4.5c1.93,0,3.5,1.57,3.5,3.5s-1.57,3.5-3.5,3.5-3.5-1.57-3.5-3.5,1.57-3.5,3.5-3.5Zm-5.51,9.28c.91,.87,2.02,1.5,3.26,1.86v18.2c-2.7,.52-5.05,1.96-6.78,3.96l-15.8-9.12c.3-1.25,.31-2.53,.02-3.75l19.31-11.15ZM4.97,25.06c.96-1.67,3.11-2.25,4.78-1.28,1.67,.97,2.24,3.11,1.28,4.78-.97,1.67-3.11,2.24-4.78,1.28-1.67-.97-2.25-3.11-1.28-4.78Zm0,41.11c-.96-1.67-.39-3.82,1.28-4.78,1.67-.97,3.81-.39,4.78,1.28,.96,1.67,.39,3.82-1.28,4.78-1.67,.96-3.82,.39-4.78-1.28Zm10.77-3.62l15.8-9.12c1.73,2,4.08,3.44,6.78,3.96v18.2c-1.23,.36-2.35,1-3.26,1.86l-19.31-11.15c.3-1.22,.28-2.5-.02-3.75Zm24.83,24.18c-1.93,0-3.5-1.57-3.5-3.5s1.57-3.5,3.5-3.5,3.5,1.57,3.5,3.5-1.57,3.5-3.5,3.5Zm5.51-9.28c-.91-.87-2.02-1.5-3.26-1.86v-18.2c2.7-.52,5.05-1.96,6.78-3.96l15.8,9.12c-.3,1.25-.31,2.53-.02,3.75l-19.31,11.15Zm30.1-11.28c-.96,1.67-3.11,2.25-4.78,1.28s-2.24-3.11-1.28-4.78c.47-.81,1.22-1.39,2.13-1.63,.3-.08,.6-.12,.9-.12,0,0,0,0,0,0,0,0,0,0,.01,0,.6,0,1.2,.16,1.74,.47,1.67,.97,2.25,3.11,1.28,4.78Z"/>
  </g>
</svg>