<?xml version="1.0" encoding="UTF-8"?>
<svg id="Layer_2" data-name="Layer 2" xmlns="http://www.w3.org/2000/svg" viewBox="0 0 74.24 72.6">
  <defs>
    <style>
      .cls-1 {
        fill: #231f20;
      }
    </style>
  </defs>
  <g id="Layer_1-2" data-name="Layer 1">
    <path class="cls-1" d="M73.79,45.58l-6.53-8.74V20.38c2.12-1.86,3.48-4.55,3.48-7.58,0-5.58-4.54-10.12-10.12-10.12-2.77,0-5.27,1.12-7.1,2.93l-24.22-1.47C26.97,1.61,23.65,0,19.94,0,12.88,0,7.14,5.74,7.14,12.8c0,3.69,1.59,6.99,4.09,9.33l-2.94,45.98H2.25c-1.24,0-2.25,1.01-2.25,2.25s1.01,2.25,2.25,2.25H37.63c1.24,0,2.25-1.01,2.25-2.25s-1.01-2.25-2.25-2.25h-6.03l-2.9-46.01c.21-.2,.41-.41,.61-.63l24.21-1.47c.14,.14,.31,.25,.47,.38v16.45l-6.53,8.74c-.6,.8-.6,1.89,0,2.69l6.98,9.35c.44,.59,1.12,.9,1.8,.9,.47,0,.94-.15,1.34-.45,1-.74,1.2-2.15,.46-3.15l-5.98-8,5.3-7.1h6.5l5.3,7.1-5.98,8c-.74,.99-.54,2.41,.46,3.15,.4,.3,.88,.45,1.34,.45,.69,0,1.36-.31,1.8-.9l6.98-9.35c.6-.8,.6-1.89,0-2.69Zm-7.55-32.77c0,3.1-2.52,5.62-5.62,5.62s-5.62-2.52-5.62-5.62,2.52-5.62,5.62-5.62,5.62,2.52,5.62,5.62ZM19.94,4.5c4.58,0,8.31,3.73,8.31,8.3s-3.73,8.31-8.31,8.31-8.3-3.73-8.3-8.31,3.73-8.3,8.3-8.3Zm7.15,63.6H12.79l2.77-43.32c1.37,.5,2.83,.82,4.38,.82s3.04-.32,4.42-.83l2.73,43.33Zm4.95-59.29l18.92,1.15c-.27,.91-.46,1.85-.46,2.84s.19,1.93,.46,2.84l-18.92,1.15c.42-1.26,.7-2.59,.7-3.99s-.28-2.73-.7-3.99Zm26.45,26.51v-12.64c.69,.15,1.4,.24,2.14,.24s1.44-.09,2.13-.24v12.64h-4.27Z"/>
  </g>
</svg>