<?xml version="1.0" encoding="UTF-8"?>
<svg id="Layer_2" data-name="Layer 2" xmlns="http://www.w3.org/2000/svg" viewBox="0 0 83.17 75.83">
  <defs>
    <style>
      .cls-1 {
        fill: #231f20;
      }
    </style>
  </defs>
  <g id="Layer_1-2" data-name="Layer 1">
    <path class="cls-1" d="M12.29,14.17c1.61,0,2.92-1.31,2.92-2.92s-1.31-2.92-2.92-2.92-2.92,1.31-2.92,2.92,1.31,2.92,2.92,2.92Zm8.58,0c1.61,0,2.92-1.31,2.92-2.92s-1.31-2.92-2.92-2.92-2.92,1.31-2.92,2.92,1.31,2.92,2.92,2.92Zm8.59,0c1.61,0,2.92-1.31,2.92-2.92s-1.31-2.92-2.92-2.92-2.92,1.31-2.92,2.92,1.31,2.92,2.92,2.92ZM75.25,0H7.92C3.55,0,0,3.55,0,7.92v60c0,4.37,3.55,7.92,7.92,7.92H75.25c4.37,0,7.92-3.55,7.92-7.92V7.92c0-4.37-3.55-7.92-7.92-7.92ZM7.92,4.5H75.25c1.88,0,3.42,1.53,3.42,3.42v9.92H4.5V7.92c0-1.88,1.53-3.42,3.42-3.42ZM75.25,71.33H7.92c-1.88,0-3.42-1.53-3.42-3.42V22.33H78.67v45.58c0,1.88-1.53,3.42-3.42,3.42ZM35.58,33.84c-4.66,0-8.45,3.79-8.45,8.45v16.91c0,1.24,1.01,2.25,2.25,2.25s2.25-1.01,2.25-2.25v-8.32h7.9v8.32c0,1.24,1.01,2.25,2.25,2.25s2.25-1.01,2.25-2.25v-16.91c0-4.66-3.79-8.45-8.45-8.45Zm-3.95,12.53v-4.08c0-2.18,1.77-3.95,3.95-3.95s3.95,1.77,3.95,3.95v4.08h-7.9Zm24.42-10.28v23.11c0,1.24-1.01,2.25-2.25,2.25s-2.25-1.01-2.25-2.25v-23.11c0-1.24,1.01-2.25,2.25-2.25s2.25,1.01,2.25,2.25Z"/>
  </g>
</svg>