<?xml version="1.0" encoding="UTF-8"?>
<svg id="Layer_2" data-name="Layer 2" xmlns="http://www.w3.org/2000/svg" viewBox="0 0 76.83 76.83">
  <defs>
    <style>
      .cls-1 {
        fill: #231f20;
      }
    </style>
  </defs>
  <g id="Layer_1-2" data-name="Layer 1">
    <path class="cls-1" d="M60.86,13.72H15.97c-1.24,0-2.25,1.01-2.25,2.25V60.86c0,1.24,1.01,2.25,2.25,2.25H60.86c1.24,0,2.25-1.01,2.25-2.25V15.97c0-1.24-1.01-2.25-2.25-2.25Zm-2.25,44.89H18.22V18.22H58.61V58.61ZM20.55,8.58V2.25c0-1.24,1.01-2.25,2.25-2.25s2.25,1.01,2.25,2.25v6.33c0,1.24-1.01,2.25-2.25,2.25s-2.25-1.01-2.25-2.25Zm10.41,0V2.25c0-1.24,1.01-2.25,2.25-2.25s2.25,1.01,2.25,2.25v6.33c0,1.24-1.01,2.25-2.25,2.25s-2.25-1.01-2.25-2.25Zm10.41,0V2.25c0-1.24,1.01-2.25,2.25-2.25s2.25,1.01,2.25,2.25v6.33c0,1.24-1.01,2.25-2.25,2.25s-2.25-1.01-2.25-2.25Zm10.41,0V2.25c0-1.24,1.01-2.25,2.25-2.25s2.25,1.01,2.25,2.25v6.33c0,1.24-1.01,2.25-2.25,2.25s-2.25-1.01-2.25-2.25Zm-26.74,59.67v6.33c0,1.24-1.01,2.25-2.25,2.25s-2.25-1.01-2.25-2.25v-6.33c0-1.24,1.01-2.25,2.25-2.25s2.25,1.01,2.25,2.25Zm10.41,0v6.33c0,1.24-1.01,2.25-2.25,2.25s-2.25-1.01-2.25-2.25v-6.33c0-1.24,1.01-2.25,2.25-2.25s2.25,1.01,2.25,2.25Zm10.41,0v6.33c0,1.24-1.01,2.25-2.25,2.25s-2.25-1.01-2.25-2.25v-6.33c0-1.24,1.01-2.25,2.25-2.25s2.25,1.01,2.25,2.25Zm10.41,0v6.33c0,1.24-1.01,2.25-2.25,2.25s-2.25-1.01-2.25-2.25v-6.33c0-1.24,1.01-2.25,2.25-2.25s2.25,1.01,2.25,2.25ZM10.83,54.04c0,1.24-1.01,2.25-2.25,2.25H2.25c-1.24,0-2.25-1.01-2.25-2.25s1.01-2.25,2.25-2.25h6.33c1.24,0,2.25,1.01,2.25,2.25Zm0-10.41c0,1.24-1.01,2.25-2.25,2.25H2.25c-1.24,0-2.25-1.01-2.25-2.25s1.01-2.25,2.25-2.25h6.33c1.24,0,2.25,1.01,2.25,2.25Zm0-10.41c0,1.24-1.01,2.25-2.25,2.25H2.25c-1.24,0-2.25-1.01-2.25-2.25s1.01-2.25,2.25-2.25h6.33c1.24,0,2.25,1.01,2.25,2.25Zm0-10.42c0,1.24-1.01,2.25-2.25,2.25H2.25c-1.24,0-2.25-1.01-2.25-2.25s1.01-2.25,2.25-2.25h6.33c1.24,0,2.25,1.01,2.25,2.25Zm66,31.24c0,1.24-1.01,2.25-2.25,2.25h-6.33c-1.24,0-2.25-1.01-2.25-2.25s1.01-2.25,2.25-2.25h6.33c1.24,0,2.25,1.01,2.25,2.25Zm0-10.41c0,1.24-1.01,2.25-2.25,2.25h-6.33c-1.24,0-2.25-1.01-2.25-2.25s1.01-2.25,2.25-2.25h6.33c1.24,0,2.25,1.01,2.25,2.25Zm0-10.41c0,1.24-1.01,2.25-2.25,2.25h-6.33c-1.24,0-2.25-1.01-2.25-2.25s1.01-2.25,2.25-2.25h6.33c1.24,0,2.25,1.01,2.25,2.25Zm-10.83-10.42c0-1.24,1.01-2.25,2.25-2.25h6.33c1.24,0,2.25,1.01,2.25,2.25s-1.01,2.25-2.25,2.25h-6.33c-1.24,0-2.25-1.01-2.25-2.25ZM30.45,48.21c1.24,0,2.25-1.01,2.25-2.25v-4.65h3.6v4.65c0,1.24,1.01,2.25,2.25,2.25s2.25-1.01,2.25-2.25v-11.04c0-3.47-2.83-6.3-6.3-6.3s-6.3,2.83-6.3,6.3v11.04c0,1.24,1.01,2.25,2.25,2.25Zm4.05-15.08c.99,0,1.8,.81,1.8,1.8v1.88h-3.6v-1.88c0-.99,.81-1.8,1.8-1.8Zm9.64,12.83v-15.08c0-1.24,1.01-2.25,2.25-2.25s2.25,1.01,2.25,2.25v15.08c0,1.24-1.01,2.25-2.25,2.25s-2.25-1.01-2.25-2.25Z"/>
  </g>
</svg>