<?xml version="1.0" encoding="UTF-8"?>
<svg id="Layer_2" data-name="Layer 2" xmlns="http://www.w3.org/2000/svg" viewBox="0 0 75.8 80.31">
  <defs>
    <style>
      .cls-1 {
        fill: #231f20;
      }
    </style>
  </defs>
  <g id="Layer_1-2" data-name="Layer 1">
    <path class="cls-1" d="M39.02,69.41l24.37-14.1c.7-.4,1.12-1.15,1.12-1.95V26.05c0-.07-.04-.12-.05-.18-.02-.27-.09-.52-.2-.76-.04-.09-.07-.18-.13-.26-.19-.29-.42-.56-.74-.74l-24.37-14.1c-.7-.4-1.56-.4-2.25,0L12.4,24.11c-.32,.19-.56,.45-.74,.74-.05,.08-.08,.17-.13,.26-.11,.24-.18,.49-.2,.76,0,.06-.05,.12-.05,.18v27.31c0,.8,.43,1.55,1.12,1.95l24.37,14.1s0,0,0,0c0,0,0,0,0,0,.22,.13,.47,.14,.71,.19,.14,.03,.27,.11,.41,.11,0,0,0,0,0,0s0,0,0,0c.03,0,.05-.02,.08-.02,.36-.01,.72-.1,1.04-.28,0,0,0,0,.01,0Zm21-17.35l-19.87,11.5v-22.11l19.87-11.5v22.11ZM37.9,14.55l19.88,11.5-19.88,11.5-19.88-11.5,19.88-11.5ZM15.77,29.95l19.87,11.5v22.11l-19.87-11.5V29.95ZM0,16.74V2.25C0,1.01,1.01,0,2.25,0h14.15c1.24,0,2.25,1.01,2.25,2.25s-1.01,2.25-2.25,2.25H4.5v12.24c0,1.24-1.01,2.25-2.25,2.25s-2.25-1.01-2.25-2.25ZM75.8,2.25v14.49c0,1.24-1.01,2.25-2.25,2.25s-2.25-1.01-2.25-2.25V4.5h-11.9c-1.24,0-2.25-1.01-2.25-2.25s1.01-2.25,2.25-2.25h14.15c1.24,0,2.25,1.01,2.25,2.25ZM18.65,78.06c0,1.24-1.01,2.25-2.25,2.25H2.25c-1.24,0-2.25-1.01-2.25-2.25v-14.49c0-1.24,1.01-2.25,2.25-2.25s2.25,1.01,2.25,2.25v12.24h11.9c1.24,0,2.25,1.01,2.25,2.25Zm57.14-14.49v14.49c0,1.24-1.01,2.25-2.25,2.25h-14.15c-1.24,0-2.25-1.01-2.25-2.25s1.01-2.25,2.25-2.25h11.9v-12.24c0-1.24,1.01-2.25,2.25-2.25s2.25,1.01,2.25,2.25Z"/>
  </g>
</svg>