<?xml version="1.0" encoding="UTF-8"?>
<svg id="Layer_2" data-name="Layer 2" xmlns="http://www.w3.org/2000/svg" viewBox="0 0 65.75 76.83">
  <defs>
    <style>
      .cls-1 {
        fill: #231f20;
      }
    </style>
  </defs>
  <g id="Layer_1-2" data-name="Layer 1">
    <path class="cls-1" d="M56.32,0H9.42C4.23,0,0,4.23,0,9.42v57.99c0,5.2,4.23,9.42,9.42,9.42H56.32c5.2,0,9.42-4.23,9.42-9.42V9.42c0-5.2-4.23-9.42-9.42-9.42Zm4.92,67.41c0,2.71-2.21,4.92-4.92,4.92H9.42c-2.71,0-4.92-2.21-4.92-4.92V9.42c0-2.71,2.21-4.92,4.92-4.92H56.32c2.71,0,4.92,2.21,4.92,4.92v57.99Zm-9.46-35.45c1.24,0,2.25-1.01,2.25-2.25s-1.01-2.25-2.25-2.25H13.96c-1.24,0-2.25,1.01-2.25,2.25s1.01,2.25,2.25,2.25h3.22v3.73c-3.15,.97-5.47,3.88-5.47,7.34,0,4.25,3.46,7.71,7.72,7.71s7.71-3.46,7.71-7.71c0-3.47-2.31-6.37-5.46-7.34v-3.73h8.95v16.47c-3.15,.97-5.47,3.88-5.47,7.34,0,4.25,3.46,7.71,7.72,7.71s7.71-3.46,7.71-7.71c0-3.47-2.31-6.37-5.46-7.34V31.96h8.95v3.73c-3.15,.97-5.46,3.88-5.46,7.34,0,4.25,3.46,7.71,7.71,7.71s7.72-3.46,7.72-7.71c0-3.47-2.31-6.37-5.47-7.34v-3.73h3.22Zm-29.15,11.08c0,1.77-1.44,3.21-3.21,3.21s-3.22-1.44-3.22-3.21,1.44-3.22,3.22-3.22,3.21,1.44,3.21,3.22Zm13.45,12.73c0,1.77-1.44,3.21-3.21,3.21s-3.22-1.44-3.22-3.21,1.44-3.22,3.22-3.22,3.21,1.44,3.21,3.22Zm13.45-12.73c0,1.77-1.44,3.21-3.22,3.21s-3.21-1.44-3.21-3.21,1.44-3.22,3.21-3.22,3.22,1.44,3.22,3.22Zm4.5-24.51c0,1.24-1.01,2.25-2.25,2.25H13.96c-1.24,0-2.25-1.01-2.25-2.25s1.01-2.25,2.25-2.25H51.79c1.24,0,2.25,1.01,2.25,2.25Z"/>
  </g>
</svg>