<?xml version="1.0" encoding="UTF-8"?>
<svg id="Layer_2" data-name="Layer 2" xmlns="http://www.w3.org/2000/svg" viewBox="0 0 79.33 67.5">
  <defs>
    <style>
      .cls-1 {
        fill: #231f20;
      }
    </style>
  </defs>
  <g id="Layer_1-2" data-name="Layer 1">
    <path class="cls-1" d="M64.31,37.47c-.09,0-.18,0-.27,0-3.54-4.77-9.08-7.58-15.07-7.58-7.97,0-15.03,5.05-17.69,12.45-6.12,.94-10.7,6.15-10.7,12.5s5.11,12.13,11.83,12.67h31.9c8.28,0,15.02-6.74,15.02-15.02s-6.74-15.02-15.02-15.02Zm0,25.53h-31.72c-4.21-.34-7.51-3.93-7.51-8.17,0-4.45,3.5-8.02,7.96-8.14,1-.02,1.86-.71,2.12-1.67,1.66-6.26,7.34-10.63,13.81-10.63,4.92,0,9.44,2.49,12.08,6.67,.46,.72,1.28,1.12,2.14,1.03l.49-.06c.21-.03,.41-.06,.63-.06,5.8,0,10.52,4.72,10.52,10.52s-4.72,10.52-10.52,10.52ZM13.52,9.75c-1.65,0-3,1.35-3,3s1.35,3,3,3,3-1.35,3-3-1.35-3-3-3Zm-3,24c0,1.65,1.35,3,3,3s3-1.35,3-3-1.35-3-3-3-3,1.35-3,3Zm5.98,8.25h-3.75c-4.55,0-8.25-3.7-8.25-8.25s3.7-8.25,8.25-8.25h8.56v9.58c0,1.24,1.01,2.25,2.25,2.25s2.25-1.01,2.25-2.25v-9.58h28.5c2.74,0,5.3,1.36,6.84,3.63,.7,1.03,2.09,1.3,3.12,.6,1.03-.7,1.3-2.09,.6-3.12-.91-1.35-2.05-2.48-3.35-3.37,3.34-2.3,5.53-6.14,5.53-10.49,0-7.03-5.72-12.75-12.75-12.75H12.75C5.72,0,0,5.72,0,12.75c0,4.35,2.2,8.2,5.54,10.5-3.34,2.3-5.54,6.15-5.54,10.5s2.2,8.2,5.54,10.5c-3.34,2.3-5.54,6.15-5.54,10.5,0,7.03,5.72,12.75,12.75,12.75h2.9c1.24,0,2.25-1.01,2.25-2.25s-1.01-2.25-2.25-2.25h-2.9c-4.55,0-8.25-3.7-8.25-8.25s3.7-8.25,8.25-8.25h3.75c1.24,0,2.25-1.01,2.25-2.25s-1.01-2.25-2.25-2.25ZM62.56,12.75c0,4.55-3.7,8.25-8.25,8.25H25.81V4.5h28.5c4.55,0,8.25,3.7,8.25,8.25Zm-58.06,0c0-4.55,3.7-8.25,8.25-8.25h8.56V21H12.75c-4.55,0-8.25-3.7-8.25-8.25ZM13.52,51.75c-1.65,0-3,1.35-3,3s1.35,3,3,3,3-1.35,3-3-1.35-3-3-3Z"/>
  </g>
</svg>