<?xml version="1.0" encoding="UTF-8"?>
<svg id="Layer_2" data-name="Layer 2" xmlns="http://www.w3.org/2000/svg" viewBox="0 0 84.11 73">
  <defs>
    <style>
      .cls-1 {
        fill: #231f20;
      }
    </style>
  </defs>
  <g id="Layer_1-2" data-name="Layer 1">
    <path class="cls-1" d="M63.12,13.27c.83,4.48,4.76,7.89,9.48,7.89h1.85c5.32,0,9.66-4.33,9.66-9.65v-1.85c0-5.32-4.33-9.65-9.66-9.65h-1.85c-4.96,0-9.01,3.77-9.55,8.59-4.29,.98-7.51,4.81-7.51,9.4v16.26h-3.04c-.65-4.69-4.65-8.33-9.52-8.33h-1.85c-4.87,0-8.87,3.64-9.52,8.33h-3.04V17.99c0-4.59-3.22-8.42-7.51-9.4C20.52,3.77,16.47,0,11.51,0h-1.85C4.33,0,0,4.33,0,9.65v1.85c0,5.32,4.33,9.65,9.65,9.65h1.85c4.72,0,8.64-3.41,9.48-7.89,1.81,.8,3.08,2.61,3.08,4.71v16.26h-3.04c-.65-4.69-4.65-8.33-9.52-8.33h-1.85c-5.32,0-9.65,4.33-9.65,9.65v1.85c0,5.32,4.33,9.66,9.65,9.66h1.85c4.87,0,8.87-3.64,9.52-8.33h3.04v16.26c0,2.1-1.27,3.91-3.08,4.71-.83-4.48-4.76-7.89-9.48-7.89h-1.85c-5.32,0-9.65,4.33-9.65,9.65v1.85c0,5.32,4.33,9.65,9.65,9.65h1.85c4.96,0,9.01-3.77,9.55-8.59,4.29-.98,7.51-4.81,7.51-9.4v-16.26h3.04c.65,4.69,4.65,8.33,9.52,8.33h1.85c4.87,0,8.87-3.64,9.52-8.33h3.04v16.26c0,4.58,3.22,8.42,7.51,9.4,.54,4.82,4.59,8.59,9.55,8.59h1.85c5.32,0,9.66-4.33,9.66-9.65v-1.85c0-5.32-4.33-9.65-9.66-9.65h-1.85c-4.72,0-8.64,3.41-9.48,7.89-1.81-.8-3.08-2.61-3.08-4.71v-16.26h3.04c.65,4.69,4.65,8.33,9.52,8.33h1.85c5.32,0,9.66-4.33,9.66-9.66v-1.85c0-5.32-4.33-9.65-9.66-9.65h-1.85c-4.87,0-8.87,3.64-9.52,8.33h-3.04V17.99c0-2.11,1.27-3.91,3.08-4.71Zm4.32-3.62c0-2.84,2.31-5.15,5.16-5.15h1.85c2.84,0,5.16,2.31,5.16,5.15v1.85c0,2.84-2.31,5.15-5.16,5.15h-1.85c-2.84,0-5.16-2.31-5.16-5.15v-1.85Zm-50.78,1.85c0,2.84-2.31,5.15-5.16,5.15h-1.85c-2.84,0-5.15-2.31-5.15-5.15v-1.85c0-2.84,2.31-5.15,5.15-5.15h1.85c2.84,0,5.16,2.31,5.16,5.15v1.85Zm0,25.92c0,2.84-2.31,5.16-5.16,5.16h-1.85c-2.84,0-5.15-2.31-5.15-5.16v-1.85c0-2.84,2.31-5.15,5.15-5.15h1.85c2.84,0,5.16,2.31,5.16,5.15v1.85Zm0,25.92c0,2.84-2.31,5.15-5.16,5.15h-1.85c-2.84,0-5.15-2.31-5.15-5.15v-1.85c0-2.84,2.31-5.15,5.15-5.15h1.85c2.84,0,5.16,2.31,5.16,5.15v1.85Zm31.47-25.92c0,2.84-2.31,5.16-5.15,5.16h-1.85c-2.84,0-5.16-2.31-5.16-5.16v-1.85c0-2.84,2.31-5.15,5.16-5.15h1.85c2.84,0,5.15,2.31,5.15,5.15v1.85Zm19.31,24.07c0-2.84,2.31-5.15,5.16-5.15h1.85c2.84,0,5.16,2.31,5.16,5.15v1.85c0,2.84-2.31,5.15-5.16,5.15h-1.85c-2.84,0-5.16-2.31-5.16-5.15v-1.85Zm0-25.92c0-2.84,2.31-5.15,5.16-5.15h1.85c2.84,0,5.16,2.31,5.16,5.15v1.85c0,2.84-2.31,5.16-5.16,5.16h-1.85c-2.84,0-5.16-2.31-5.16-5.16v-1.85Z"/>
  </g>
</svg>