<?xml version="1.0" encoding="UTF-8"?>
<svg id="Layer_2" data-name="Layer 2" xmlns="http://www.w3.org/2000/svg" viewBox="0 0 73.94 84.16">
  <defs>
    <style>
      .cls-1 {
        fill: #231f20;
      }
    </style>
  </defs>
  <g id="Layer_1-2" data-name="Layer 1">
    <path class="cls-1" d="M68.58,84.16H5.36c-1.24,0-2.25-1.01-2.25-2.25,0-7.17,4.8-13.25,11.36-15.18-2.71-2.56-4.39-6.19-4.39-10.2v-1.46h-1.6c-4.68,0-8.48-3.8-8.48-8.48v-7.43c0-4.68,3.8-8.48,8.48-8.48h1.6c.1-7.27,5.75-13.23,12.89-13.82v-2.34c-3-.96-5.19-3.77-5.19-7.09,0-4.1,3.34-7.44,7.44-7.44s7.44,3.34,7.44,7.44c0,3.32-2.18,6.13-5.19,7.09v2.3h18.99v-2.3c-3-.96-5.19-3.77-5.19-7.09,0-4.1,3.34-7.44,7.44-7.44s7.44,3.34,7.44,7.44c0,3.32-2.18,6.13-5.19,7.09v2.34c7.15,.59,12.79,6.55,12.89,13.82h1.61c4.68,0,8.48,3.8,8.48,8.48v7.43c0,4.68-3.8,8.48-8.48,8.48h-1.6v1.46c0,4.01-1.69,7.64-4.39,10.2,6.56,1.93,11.36,8,11.36,15.18,0,1.24-1.01,2.25-2.25,2.25Zm-60.74-4.5h58.27c-1.05-5.16-5.62-9.06-11.09-9.06H18.93c-5.47,0-10.04,3.9-11.09,9.06Zm16.31-13.56h25.65c5.27,0,9.57-4.29,9.57-9.57V30.89c0-5.27-4.29-9.57-9.57-9.57H24.15c-5.27,0-9.57,4.29-9.57,9.57v25.65c0,5.27,4.29,9.57,9.57,9.57Zm39.71-15.53h1.6c2.19,0,3.98-1.78,3.98-3.98v-7.43c0-2.19-1.78-3.98-3.98-3.98h-1.6v15.39ZM8.48,35.19c-2.19,0-3.98,1.78-3.98,3.98v7.43c0,2.19,1.78,3.98,3.98,3.98h1.6v-15.39h-1.6ZM48.72,4.5c-1.62,0-2.94,1.32-2.94,2.94s1.32,2.94,2.94,2.94,2.94-1.32,2.94-2.94-1.32-2.94-2.94-2.94Zm-23.49,0c-1.62,0-2.94,1.32-2.94,2.94s1.32,2.94,2.94,2.94,2.94-1.32,2.94-2.94-1.32-2.94-2.94-2.94Zm23.96,53.57H24.76c-1.24,0-2.25-1.01-2.25-2.25s1.01-2.25,2.25-2.25h24.42c1.24,0,2.25,1.01,2.25,2.25s-1.01,2.25-2.25,2.25Zm-1.39-16.92c-2.65,0-4.81-2.16-4.81-4.81s2.16-4.81,4.81-4.81,4.81,2.16,4.81,4.81-2.16,4.81-4.81,4.81Zm-20.09,0c-2.65,0-4.81-2.16-4.81-4.81s2.16-4.81,4.81-4.81,4.81,2.16,4.81,4.81-2.16,4.81-4.81,4.81Z"/>
  </g>
</svg>