<?xml version="1.0" encoding="UTF-8"?>
<svg id="Layer_2" data-name="Layer 2" xmlns="http://www.w3.org/2000/svg" viewBox="0 0 72.25 73.02">
  <defs>
    <style>
      .cls-1 {
        fill: #231f20;
      }
    </style>
  </defs>
  <g id="Layer_1-2" data-name="Layer 1">
    <path class="cls-1" d="M27.86,73.02H13.35c-7.36,0-13.35-5.99-13.35-13.35V13.35C0,5.99,5.99,0,13.35,0h14.51c7.36,0,13.35,5.99,13.35,13.35v7.45h8.6l6.61-5.16c-.11-.53-.17-1.08-.17-1.65,0-4.41,3.59-8,8-8s8,3.59,8,8-3.59,8-8,8c-2.2,0-4.2-.9-5.65-2.34l-6.63,5.17c-.4,.31-.88,.48-1.38,.48h-9.37v8.96h15.36c.97-3.32,4.05-5.75,7.68-5.75,4.41,0,8,3.59,8,8s-3.59,8-8,8c-3.63,0-6.7-2.43-7.68-5.75h-15.36v8.96h9.37c.5,0,.99,.17,1.38,.48l6.63,5.17c1.45-1.45,3.45-2.34,5.65-2.34,4.41,0,8,3.59,8,8s-3.59,8-8,8-8-3.59-8-8c0-.57,.06-1.12,.17-1.65l-6.61-5.16h-8.6v7.45c0,7.36-5.99,13.35-13.35,13.35ZM13.35,4.5c-4.88,0-8.85,3.97-8.85,8.85V59.67c0,4.88,3.97,8.85,8.85,8.85h14.51c4.88,0,8.85-3.97,8.85-8.85V13.35c0-4.88-3.97-8.85-8.85-8.85H13.35ZM61.02,57.68c-.17,.41-.27,.87-.27,1.34,0,1.93,1.57,3.5,3.5,3.5s3.5-1.57,3.5-3.5-1.57-3.5-3.5-3.5c-1.34,0-2.51,.76-3.09,1.86-.04,.1-.08,.2-.14,.29Zm3.23-24.67c-1.93,0-3.5,1.57-3.5,3.5s1.57,3.5,3.5,3.5,3.5-1.57,3.5-3.5-1.57-3.5-3.5-3.5Zm-3.09-17.38c.59,1.11,1.75,1.86,3.09,1.86,1.93,0,3.5-1.57,3.5-3.5s-1.57-3.5-3.5-3.5-3.5,1.57-3.5,3.5c0,.48,.1,.93,.27,1.34,.05,.1,.1,.19,.14,.29ZM28.94,46.64c-1.24,0-2.25-1.01-2.25-2.25v-15.77c0-1.24,1.01-2.25,2.25-2.25s2.25,1.01,2.25,2.25v15.77c0,1.24-1.01,2.25-2.25,2.25Zm-8.2,0c-1.24,0-2.25-1.01-2.25-2.25v-4.97h-3.96v4.97c0,1.24-1.01,2.25-2.25,2.25s-2.25-1.01-2.25-2.25v-11.54c0-3.57,2.91-6.48,6.48-6.48s6.48,2.91,6.48,6.48v11.54c0,1.24-1.01,2.25-2.25,2.25Zm-6.21-11.72h3.96v-2.07c0-1.09-.89-1.98-1.98-1.98s-1.98,.89-1.98,1.98v2.07ZM24.92,14.63h-8.64c-1.24,0-2.25-1.01-2.25-2.25s1.01-2.25,2.25-2.25h8.64c1.24,0,2.25,1.01,2.25,2.25s-1.01,2.25-2.25,2.25Z"/>
  </g>
</svg>