<?xml version="1.0" encoding="UTF-8"?>
<svg id="Layer_2" data-name="Layer 2" xmlns="http://www.w3.org/2000/svg" viewBox="0 0 88.16 89.41">
  <defs>
    <style>
      .cls-1 {
        fill: #231f20;
      }
    </style>
  </defs>
  <g id="Layer_1-2" data-name="Layer 1">
    <path class="cls-1" d="M87.82,60.76c-.41,.66-1.13,1.06-1.91,1.06h-5.52v10.65c0,3.47-2.82,6.29-6.29,6.29h-6.31v8.41c0,1.24-1.01,2.25-2.25,2.25H31.26c-.6,0-1.18-.24-1.6-.67-.42-.43-.66-1.01-.65-1.61,.13-7.62-1.91-15.25-5.9-22.06-1.33-2.27-2.48-4.66-3.44-7.1-.45-1.16,.12-2.46,1.28-2.92,1.15-.45,2.46,.12,2.92,1.28,.87,2.23,1.92,4.41,3.13,6.47,4,6.85,6.23,14.45,6.49,22.12h29.8v-8.41c0-1.24,1.01-2.25,2.25-2.25h8.56c.99,0,1.79-.8,1.79-1.79v-12.9c0-1.24,1.01-2.25,2.25-2.25h4.14l-7.6-15.34c-.19-.38-.27-.81-.22-1.24,.01-.1,.98-10.26-5.51-16.73-4.59-4.57-11.87-6.36-21.65-5.31-1.24,.14-2.35-.76-2.48-2-.13-1.24,.76-2.35,2-2.48,11.23-1.2,19.75,1.03,25.34,6.63,7.01,7.02,6.98,16.96,6.82,19.68l8.94,18.04c.35,.7,.31,1.52-.1,2.19ZM24.04,4.3h0C26.39,.2,31.64-1.22,35.75,1.14c1.99,1.14,3.41,2.99,4,5.2,.6,2.21,.3,4.52-.85,6.51-.32,.56-.71,1.06-1.14,1.53l3.56,8.76,22.27,12.81c.7,.4,1.13,1.14,1.13,1.95v26.85c0,1.24-1.01,2.25-2.25,2.25s-2.25-1.01-2.25-2.25v-25.55l-21.81-12.55c-.44-.25-.77-.64-.96-1.1l-3.56-8.77c-.06,.02-.12,.05-.18,.07-.74,.2-1.5,.3-2.25,.3-1.48,0-2.94-.39-4.26-1.15-4.1-2.36-5.52-7.61-3.16-11.71Zm5.4,7.81c.94,.54,2.04,.69,3.1,.4,1.05-.28,1.93-.96,2.47-1.9,.54-.94,.69-2.04,.4-3.1-.28-1.05-.96-1.93-1.9-2.47-1.95-1.11-4.45-.45-5.57,1.5-1.12,1.95-.45,4.45,1.5,5.57ZM.3,22.81C-.3,20.6,0,18.29,1.15,16.3s2.99-3.41,5.2-4c2.22-.6,4.52-.3,6.51,.85,3.42,1.97,4.94,5.95,3.99,9.59l34.9,20.08c.7,.4,1.13,1.14,1.13,1.95v20c0,1.24-1.01,2.25-2.25,2.25s-2.25-1.01-2.25-2.25v-18.7L14.63,26.65c-1.63,1.62-3.82,2.5-6.07,2.5-1.45,0-2.92-.37-4.26-1.14-1.99-1.14-3.41-2.99-4-5.2Zm4.34-1.17c.28,1.05,.96,1.93,1.9,2.47,1.95,1.11,4.45,.44,5.57-1.5,1.12-1.95,.45-4.45-1.5-5.57-.63-.36-1.32-.55-2.03-.55-.36,0-.71,.05-1.07,.14-1.05,.28-1.93,.96-2.47,1.9h0c-.54,.94-.69,2.04-.4,3.1Zm13.26,27.28c-.18,.6-.42,1.19-.75,1.76-1.14,1.99-2.99,3.41-5.2,4-.74,.2-1.5,.3-2.25,.3-1.48,0-2.94-.39-4.26-1.15-1.99-1.14-3.41-2.99-4-5.2-.6-2.21-.29-4.52,.85-6.51,1.14-1.99,2.99-3.41,5.2-4,2.21-.6,4.52-.3,6.51,.85,2.11,1.21,3.49,3.2,4.03,5.39l9.38-1.33c.49-.07,1,.03,1.44,.28l11.06,6.38c.7,.4,1.13,1.15,1.13,1.95v13.12c0,1.24-1.01,2.25-2.25,2.25s-2.25-1.01-2.25-2.25v-11.82l-9.26-5.34-9.36,1.33Zm-6.15-6.05c-.63-.36-1.32-.55-2.03-.55-.36,0-.71,.05-1.07,.14-1.05,.28-1.93,.96-2.47,1.9-.54,.94-.69,2.04-.4,3.1,.28,1.05,.96,1.93,1.9,2.47h0c.94,.54,2.04,.69,3.1,.4s1.93-.96,2.47-1.9c1.12-1.95,.45-4.45-1.5-5.57Z"/>
  </g>
</svg>