<?xml version="1.0" encoding="UTF-8"?>
<svg id="Layer_2" data-name="Layer 2" xmlns="http://www.w3.org/2000/svg" viewBox="0 0 79.69 90.02">
  <defs>
    <style>
      .cls-1 {
        fill: #231f20;
      }
    </style>
  </defs>
  <g id="Layer_1-2" data-name="Layer 1">
    <path class="cls-1" d="M62.12,90.02h-14.22c-1.02,0-1.9-.68-2.17-1.66l-1.15-4.21-1.75-7.8h0c-1.12-5.02-.23-10.18,2.53-14.53l6.93-11.14c1.87-2.95,5.57-4.18,8.62-2.88,.96,.41,1.69,.92,2.24,1.44,.69-1.87,1.26-3.8,1.71-5.76l1.6-6.91c.02-.1,.06-.21,.1-.31,1.13-2.9,4.06-4.67,7.16-4.29,1.86,.23,3.56,1.22,4.66,2.73,1.11,1.51,1.54,3.43,1.2,5.27l-1.59,8.51c-1.79,9.56-5.33,18.57-10.54,26.78l-2.64,4.16c-.57,.9-.76,1.97-.52,3.02,.43,1.92,.44,3.87,.03,5.79-.22,1.04-1.14,1.78-2.2,1.78Zm-12.5-4.5h10.5c0-.7-.06-1.4-.22-2.09-.5-2.22-.1-4.49,1.12-6.41l2.64-4.16c4.9-7.73,8.23-16.2,9.91-25.2l1.59-8.51c.12-.63-.03-1.27-.41-1.78-.38-.52-.94-.85-1.58-.92-.99-.11-1.96,.42-2.37,1.33l-1.55,6.72c-1.43,6.17-3.93,11.97-7.43,17.25l-3.01,4.54c-.67,1.01-2.01,1.31-3.04,.68-1.03-.63-1.38-1.96-.8-3.01l4.87-8.76c.47-.94,.66-1.81,.48-2.31-.13-.36-.52-.68-1.16-.95-1.03-.44-2.37,.06-3.05,1.14l-6.93,11.13c-2.12,3.35-2.81,7.3-1.95,11.15l2.4,10.16Zm-17.82,4.5h-14.22c-1.06,0-1.98-.74-2.2-1.78-.41-1.93-.4-3.87,.03-5.79,.23-1.04,.05-2.11-.52-3.02l-2.64-4.16C7.04,67.07,3.49,58.06,1.71,48.5L.11,39.99c-.34-1.84,.09-3.76,1.2-5.27,1.1-1.51,2.8-2.5,4.66-2.73,3.1-.37,6.04,1.39,7.16,4.29,.04,.1,.07,.2,.1,.31l1.6,6.91c.45,1.96,1.02,3.88,1.71,5.76,.55-.53,1.27-1.03,2.24-1.44,3.05-1.29,6.75-.07,8.61,2.87l6.95,11.17c2.75,4.33,3.64,9.49,2.52,14.52h0l-1.73,7.7-1.17,4.31c-.27,.98-1.16,1.66-2.17,1.66Zm-12.22-4.5h10.5l.69-2.55,1.7-7.61c.86-3.85,.18-7.81-1.94-11.14l-6.95-11.17c-.67-1.06-2.01-1.56-3.04-1.12-.64,.27-1.03,.59-1.16,.95-.18,.5,0,1.37,.52,2.39l4.83,8.68c.59,1.06,.24,2.39-.8,3.01-1.03,.63-2.37,.33-3.04-.68l-3.01-4.54c-3.5-5.28-6-11.09-7.43-17.25l-1.55-6.72c-.41-.91-1.38-1.44-2.37-1.33-.64,.08-1.2,.41-1.58,.92-.38,.52-.52,1.15-.41,1.78l1.59,8.51c1.68,8.99,5.02,17.47,9.91,25.2l2.64,4.16c1.22,1.92,1.61,4.19,1.12,6.41-.16,.69-.23,1.39-.22,2.09Zm15.1-9.67h0Zm5.18-31.18c-12.32,0-22.34-10.02-22.34-22.34S27.53,0,39.85,0s22.34,10.02,22.34,22.34-10.02,22.34-22.34,22.34Zm0-40.18c-9.84,0-17.84,8-17.84,17.84s8,17.84,17.84,17.84,17.84-8,17.84-17.84S49.68,4.5,39.85,4.5Zm7.57,27.26c-1.24,0-2.25-1.01-2.25-2.25V15.17c0-1.24,1.01-2.25,2.25-2.25s2.25,1.01,2.25,2.25v14.33c0,1.24-1.01,2.25-2.25,2.25Zm-7.45,0c-1.24,0-2.25-1.01-2.25-2.25v-4.31h-3.19v4.31c0,1.24-1.01,2.25-2.25,2.25s-2.25-1.01-2.25-2.25v-10.49c0-3.36,2.73-6.1,6.1-6.1s6.1,2.73,6.1,6.1v10.49c0,1.24-1.01,2.25-2.25,2.25Zm-5.44-11.06h3.19v-1.68c0-.88-.72-1.6-1.6-1.6s-1.6,.72-1.6,1.6v1.68Z"/>
  </g>
</svg>