<?xml version="1.0" encoding="UTF-8"?>
<svg id="Layer_2" data-name="Layer 2" xmlns="http://www.w3.org/2000/svg" viewBox="0 0 73.83 66.27">
  <defs>
    <style>
      .cls-1 {
        fill: #231f20;
      }
    </style>
  </defs>
  <g id="Layer_1-2" data-name="Layer 1">
    <path class="cls-1" d="M51.21,66.27H22.62c-1.24,0-2.25-1.01-2.25-2.25s1.01-2.25,2.25-2.25h12.05v-6.26H7.48c-4.12,0-7.48-3.36-7.48-7.48V7.48C0,3.36,3.36,0,7.48,0h58.87c4.12,0,7.48,3.36,7.48,7.48V48.03c0,4.12-3.36,7.48-7.48,7.48h-27.19v6.26h12.05c1.24,0,2.25,1.01,2.25,2.25s-1.01,2.25-2.25,2.25Zm-14.3-15.26h29.44c1.64,0,2.98-1.34,2.98-2.98V7.48c0-1.64-1.34-2.98-2.98-2.98H7.48c-1.64,0-2.98,1.34-2.98,2.98V48.03c0,1.64,1.34,2.98,2.98,2.98h29.44Zm10.93-10.66c-1.24,0-2.25-1.01-2.25-2.25V17.41c0-1.24,1.01-2.25,2.25-2.25s2.25,1.01,2.25,2.25v20.69c0,1.24-1.01,2.25-2.25,2.25Zm-10.76,0c-1.24,0-2.25-1.01-2.25-2.25v-7.22h-6.6v7.22c0,1.24-1.01,2.25-2.25,2.25s-2.25-1.01-2.25-2.25v-15.14c0-4.3,3.5-7.8,7.8-7.8s7.8,3.5,7.8,7.8v15.14c0,1.24-1.01,2.25-2.25,2.25Zm-8.85-13.97h6.6v-3.42c0-1.82-1.48-3.3-3.3-3.3s-3.3,1.48-3.3,3.3v3.42Z"/>
  </g>
</svg>