<?xml version="1.0" encoding="UTF-8"?>
<svg id="Layer_2" data-name="Layer 2" xmlns="http://www.w3.org/2000/svg" viewBox="0 0 80.67 70.5">
  <defs>
    <style>
      .cls-1 {
        fill: #231f20;
      }
    </style>
  </defs>
  <g id="Layer_1-2" data-name="Layer 1">
    <path class="cls-1" d="M46.97,63.69c-1.48,.61-3.01,1.07-4.55,1.44,2.8-4.86,4.51-12.32,5.26-19.51h0c.35-3.34,.52-6.83,.52-10.36,0-2.76-.12-5.52-.34-8.22,6.27-.8,12.31-2.12,17.83-4.06,.04-.02,.07-.05,.11-.07,.04-.02,.09-.01,.13-.03,.1-.05,.17-.14,.26-.2,.12-.08,.24-.16,.34-.26,.11-.11,.19-.24,.28-.38,.07-.11,.14-.21,.19-.33,.06-.15,.09-.31,.12-.47,.02-.12,.05-.24,.05-.36,0-.17-.03-.33-.07-.5-.02-.09,0-.18-.04-.27-.01-.04-.04-.06-.06-.1-.02-.05-.01-.1-.04-.14C61.02,7.61,48.86,0,35.25,0S9.35,8.1,3.61,19.81c-.05,.1-.13,.18-.17,.29-.01,.03,0,.06-.01,.09C1.25,24.76,0,29.86,0,35.25s1.26,10.5,3.43,15.07c0,.03,0,.05,.01,.08,.06,.16,.15,.3,.24,.44,5.77,11.63,17.73,19.66,31.57,19.66,4.65,0,9.17-.89,13.43-2.65,1.15-.47,1.69-1.79,1.22-2.94-.47-1.15-1.79-1.69-2.94-1.22Zm-19.4-16.28c2.53-.2,5.1-.31,7.68-.31s5.14,.13,7.67,.33c-1.67,12.64-5.48,18.56-7.67,18.56-2.62,0-6.15-6.97-7.68-18.59Zm16.13-12.16c0,2.62-.13,5.19-.33,7.71-2.68-.21-5.39-.36-8.11-.36s-5.45,.12-8.14,.33c-.19-2.42-.3-4.97-.3-7.69s.11-5.27,.3-7.69c2.69,.22,5.41,.33,8.14,.33s5.46-.12,8.14-.33c.19,2.42,.3,4.97,.3,7.69Zm-39.2,0c0-4.14,.83-8.08,2.32-11.68,4.97,1.6,10.3,2.75,15.83,3.46-.22,2.7-.34,5.46-.34,8.22s.12,5.52,.34,8.22c-5.53,.71-10.85,1.86-15.83,3.46-1.49-3.6-2.32-7.55-2.32-11.68ZM35.25,4.5c2.62,0,6.13,6.94,7.67,18.51-5.08,.39-10.26,.39-15.34,0,1.54-11.57,5.05-18.51,7.67-18.51Zm26.33,15c-4.48,1.38-9.25,2.38-14.2,3-.9-6.86-2.57-12.97-4.94-17.09,7.99,1.9,14.85,6.9,19.14,14.09ZM28.07,5.38c-2.38,4.12-4.05,10.24-4.95,17.11-4.96-.62-9.74-1.62-14.22-3,4.19-6.98,11.05-12.15,19.17-14.11ZM8.89,51c4.48-1.4,9.25-2.42,14.22-3.06,.9,6.9,2.57,13.04,4.96,17.17-8.13-1.96-14.99-7.13-19.18-14.12ZM61.47,30.94c-4.69,0-8.51,3.82-8.51,8.51v17.06c0,1.24,1.01,2.25,2.25,2.25s2.25-1.01,2.25-2.25v-8.42h8.02v8.42c0,1.24,1.01,2.25,2.25,2.25s2.25-1.01,2.25-2.25v-17.06c0-4.69-3.82-8.51-8.51-8.51Zm-4.01,12.65v-4.14c0-2.21,1.8-4.01,4.01-4.01s4.01,1.8,4.01,4.01v4.14h-8.02Zm23.21-10.4v23.32c0,1.24-1.01,2.25-2.25,2.25s-2.25-1.01-2.25-2.25v-23.32c0-1.24,1.01-2.25,2.25-2.25s2.25,1.01,2.25,2.25Z"/>
  </g>
</svg>