<?xml version="1.0" encoding="UTF-8"?>
<svg id="Layer_2" data-name="Layer 2" xmlns="http://www.w3.org/2000/svg" viewBox="0 0 71.77 73.5">
  <defs>
    <style>
      .cls-1 {
        fill: #231f20;
      }
    </style>
  </defs>
  <g id="Layer_1-2" data-name="Layer 1">
    <path class="cls-1" d="M51.12,73.5H20.15c-.6,0-1.18-.24-1.6-.67s-.66-1.01-.65-1.62c.11-6.84-1.72-13.69-5.3-19.81-.63-1.07-.27-2.45,.81-3.08,1.07-.63,2.45-.27,3.08,.81,3.6,6.16,5.61,12.98,5.89,19.87h26.49v-7.38c0-1.24,1.01-2.25,2.25-2.25h7.73c.77,0,1.4-.63,1.4-1.4v-11.65c0-1.24,1.01-2.25,2.25-2.25h3.39l-6.71-13.54c-.19-.38-.27-.81-.22-1.24,.06-.54,1.25-13.36-9.65-18.11-1.14-.5-1.66-1.82-1.16-2.96s1.82-1.65,2.96-1.16c10.75,4.69,12.8,16.09,12.38,22.04l8.04,16.22c.35,.7,.31,1.52-.1,2.19-.41,.66-1.13,1.06-1.91,1.06h-4.77v9.4c0,3.25-2.65,5.9-5.9,5.9h-5.48v7.38c0,1.24-1.01,2.25-2.25,2.25Zm-27.73-26.73C10.49,46.77,0,36.28,0,23.39S10.49,0,23.39,0s23.39,10.49,23.39,23.39-10.49,23.39-23.39,23.39Zm0-42.27C12.97,4.5,4.5,12.97,4.5,23.39s8.47,18.89,18.89,18.89,18.89-8.47,18.89-18.89S33.8,4.5,23.39,4.5Zm7.97,28.68c-1.24,0-2.25-1.01-2.25-2.25V15.84c0-1.24,1.01-2.25,2.25-2.25s2.25,1.01,2.25,2.25v15.09c0,1.24-1.01,2.25-2.25,2.25Zm-7.85,0c-1.24,0-2.25-1.01-2.25-2.25v-4.65h-3.6v4.65c0,1.24-1.01,2.25-2.25,2.25s-2.25-1.01-2.25-2.25v-11.04c0-3.47,2.83-6.3,6.3-6.3s6.3,2.83,6.3,6.3v11.04c0,1.24-1.01,2.25-2.25,2.25Zm-5.85-11.4h3.6v-1.88c0-.99-.81-1.8-1.8-1.8s-1.8,.81-1.8,1.8v1.88Z"/>
  </g>
</svg>