<?xml version="1.0" encoding="UTF-8"?>
<svg id="Layer_2" data-name="Layer 2" xmlns="http://www.w3.org/2000/svg" viewBox="0 0 71.73 68.04">
  <defs>
    <style>
      .cls-1 {
        fill: #231f20;
      }
    </style>
  </defs>
  <g id="Layer_1-2" data-name="Layer 1">
    <path class="cls-1" d="M63.28,68.04c-3.88,0-7.16-2.63-8.15-6.2h-11.11c-.99,3.57-4.27,6.2-8.15,6.2s-7.16-2.63-8.15-6.2h-11.11c-.99,3.57-4.27,6.2-8.15,6.2-4.66,0-8.45-3.79-8.45-8.45s3.79-8.45,8.45-8.45c3.88,0,7.16,2.63,8.15,6.2h11.11c.79-2.86,3.04-5.11,5.9-5.9v-2.75c-9.62-.82-17.72-6.72-21.86-10.33-1.25-1.1-1.97-2.67-1.97-4.33s.72-3.24,1.97-4.33c4.14-3.62,12.24-9.51,21.86-10.33v-2.75c-2.86-.79-5.11-3.04-5.9-5.9h-11.11c-.99,3.57-4.27,6.2-8.15,6.2C3.79,16.91,0,13.11,0,8.45S3.79,0,8.45,0c3.88,0,7.16,2.63,8.15,6.2h11.11c.99-3.57,4.27-6.2,8.15-6.2s7.16,2.63,8.15,6.2h11.11c.99-3.57,4.27-6.2,8.15-6.2,4.66,0,8.45,3.79,8.45,8.45s-3.79,8.45-8.45,8.45c-3.88,0-7.16-2.63-8.15-6.2h-11.11c-.79,2.86-3.04,5.11-5.9,5.9v2.75c9.62,.82,17.72,6.72,21.86,10.33,1.25,1.1,1.97,2.67,1.97,4.33s-.72,3.24-1.97,4.33c-4.14,3.62-12.24,9.51-21.86,10.33v2.75c2.86,.79,5.11,3.04,5.9,5.9h11.11c.99-3.57,4.27-6.2,8.15-6.2,4.66,0,8.45,3.79,8.45,8.45s-3.79,8.45-8.45,8.45Zm0-12.41c-2.18,0-3.95,1.77-3.95,3.95s1.77,3.95,3.95,3.95,3.95-1.77,3.95-3.95-1.77-3.95-3.95-3.95Zm-27.41,0c-2.18,0-3.95,1.77-3.95,3.95s1.77,3.95,3.95,3.95,3.77-1.6,3.94-3.62c-.02-.11-.02-.22-.02-.33s0-.22,.02-.33c-.17-2.02-1.87-3.62-3.94-3.62Zm-27.41,0c-2.18,0-3.95,1.77-3.95,3.95s1.77,3.95,3.95,3.95,3.95-1.77,3.95-3.95-1.77-3.95-3.95-3.95Zm27.41-11.35c9.13,0,17.17-5.84,21.15-9.32,.38-.33,.44-.74,.44-.95s-.06-.62-.44-.95h0c-3.98-3.48-12.02-9.32-21.15-9.32s-17.17,5.84-21.15,9.32c-.38,.33-.44,.74-.44,.95s.06,.62,.44,.95c3.98,3.48,12.02,9.32,21.15,9.32ZM63.28,4.5c-2.18,0-3.95,1.77-3.95,3.95s1.77,3.95,3.95,3.95,3.95-1.77,3.95-3.95-1.77-3.95-3.95-3.95Zm-27.41,0c-2.18,0-3.95,1.77-3.95,3.95s1.77,3.95,3.95,3.95,3.77-1.6,3.94-3.62c-.02-.11-.02-.22-.02-.33s0-.22,.02-.33c-.17-2.02-1.87-3.62-3.94-3.62Zm-27.41,0c-2.18,0-3.95,1.77-3.95,3.95s1.77,3.95,3.95,3.95,3.95-1.77,3.95-3.95-1.77-3.95-3.95-3.95Zm27.41,37.97c-4.66,0-8.45-3.79-8.45-8.45s3.79-8.45,8.45-8.45,8.46,3.79,8.46,8.45-3.79,8.45-8.46,8.45Zm0-12.41c-2.18,0-3.95,1.77-3.95,3.95s1.77,3.95,3.95,3.95,3.96-1.77,3.96-3.95-1.77-3.95-3.96-3.95Z"/>
  </g>
</svg>