<?xml version="1.0" encoding="UTF-8"?>
<svg id="Layer_2" data-name="Layer 2" xmlns="http://www.w3.org/2000/svg" viewBox="0 0 86.17 88.93">
  <defs>
    <style>
      .cls-1 {
        fill: #231f20;
      }
    </style>
  </defs>
  <g id="Layer_1-2" data-name="Layer 1">
    <path class="cls-1" d="M53.54,88.93h-21.05c-1.24,0-2.25-1.01-2.25-2.25v-14.33c0-1.82-1.76-4.12-4.19-7.31-1.56-2.05-3.34-4.38-5.23-7.3-2.82-4.34-4.31-9.36-4.31-14.53,0-14.68,11.89-26.63,26.5-26.63s26.5,11.95,26.5,26.63c0,5.17-1.49,10.2-4.31,14.54-1.89,2.93-3.67,5.25-5.23,7.29-2.43,3.17-4.18,5.46-4.18,7.31v14.33c0,1.24-1.01,2.25-2.25,2.25Zm-18.8-4.5h16.55v-9.83h-16.55v9.83Zm0-12.08h0Zm-.33-2.25h17.2c.7-2.46,2.5-4.81,4.78-7.79,1.51-1.98,3.23-4.23,5.03-7.01,2.35-3.61,3.59-7.79,3.59-12.09,0-12.2-9.87-22.13-22-22.13s-22,9.93-22,22.13c0,4.3,1.24,8.48,3.58,12.08,0,0,0,0,0,0,1.8,2.78,3.51,5.03,5.03,7.02,2.28,2.99,4.08,5.34,4.78,7.79Zm18.19-14.11c-1.24,0-2.25-1.01-2.25-2.25v-18.92c0-1.24,1.01-2.25,2.25-2.25s2.25,1.01,2.25,2.25v18.92c0,1.24-1.01,2.25-2.25,2.25Zm-9.84,0c-1.24,0-2.25-1.01-2.25-2.25v-6.41h-5.65v6.41c0,1.24-1.01,2.25-2.25,2.25s-2.25-1.01-2.25-2.25v-13.84c0-4.04,3.29-7.33,7.33-7.33s7.33,3.29,7.33,7.33v13.84c0,1.24-1.01,2.25-2.25,2.25Zm-7.9-13.16h5.65v-2.93c0-1.56-1.27-2.83-2.83-2.83s-2.83,1.27-2.83,2.83v2.93Zm49.05,8.42h-8.29c-1.24,0-2.25-1.01-2.25-2.25s1.01-2.25,2.25-2.25h8.29c1.24,0,2.25,1.01,2.25,2.25s-1.01,2.25-2.25,2.25Zm-73.38,0H2.25c-1.24,0-2.25-1.01-2.25-2.25s1.01-2.25,2.25-2.25H10.54c1.24,0,2.25,1.01,2.25,2.25s-1.01,2.25-2.25,2.25Zm58.6-26.03c-.78,0-1.53-.4-1.95-1.12-.62-1.08-.25-2.45,.82-3.07l7.18-4.14c1.08-.62,2.45-.25,3.07,.82,.62,1.08,.25,2.45-.82,3.07l-7.18,4.14c-.35,.21-.74,.3-1.12,.3Zm-52.25,0c-.38,0-.77-.1-1.12-.3l-7.18-4.14c-1.08-.62-1.44-2-.82-3.07,.62-1.08,2-1.45,3.07-.82l7.18,4.14c1.08,.62,1.44,2,.82,3.07-.42,.72-1.17,1.12-1.95,1.12Zm26.12-12.43c-1.24,0-2.25-1.01-2.25-2.25V2.25c0-1.24,1.01-2.25,2.25-2.25s2.25,1.01,2.25,2.25V10.54c0,1.24-1.01,2.25-2.25,2.25Z"/>
  </g>
</svg>