<?xml version="1.0" encoding="UTF-8"?>
<svg id="Layer_2" data-name="Layer 2" xmlns="http://www.w3.org/2000/svg" viewBox="0 0 71.73 69.91">
  <defs>
    <style>
      .cls-1 {
        fill: #231f20;
      }
    </style>
  </defs>
  <g id="Layer_1-2" data-name="Layer 1">
    <path class="cls-1" d="M63.27,69.91c-3.88,0-7.16-2.63-8.15-6.2h-11.11c-.99,3.57-4.27,6.2-8.15,6.2s-7.16-2.63-8.15-6.2h-11.11c-.99,3.57-4.27,6.2-8.15,6.2-4.66,0-8.45-3.79-8.45-8.45s3.79-8.45,8.45-8.45c3.88,0,7.16,2.63,8.15,6.2h11.11c.79-2.86,3.04-5.11,5.9-5.9v-7.77H14.12c-8-.64-14.12-7.3-14.12-15.16s5.64-14.01,13.12-15C16.25,6.25,24.88,0,34.64,0c7.35,0,14.14,3.5,18.42,9.42,.19-.02,.39-.02,.59-.02,9.97,0,18.07,8.11,18.07,18.07s-8.11,18.07-18.07,18.07h-15.54v7.77c2.86,.79,5.11,3.04,5.9,5.9h11.11c.99-3.57,4.27-6.2,8.15-6.2,4.66,0,8.45,3.79,8.45,8.45s-3.79,8.45-8.45,8.45Zm0-12.41c-2.18,0-3.95,1.77-3.95,3.95s1.77,3.95,3.95,3.95,3.95-1.77,3.95-3.95-1.77-3.95-3.95-3.95Zm-27.41,0c-2.18,0-3.95,1.77-3.95,3.95s1.77,3.95,3.95,3.95,3.77-1.6,3.94-3.62c-.02-.11-.02-.22-.02-.33s0-.22,.02-.33c-.17-2.03-1.87-3.62-3.94-3.62Zm-27.41,0c-2.18,0-3.95,1.77-3.95,3.95s1.77,3.95,3.95,3.95,3.95-1.77,3.95-3.95-1.77-3.95-3.95-3.95ZM14.85,19.75c-5.81,.17-10.35,4.83-10.35,10.63s4.3,10.22,9.8,10.67h21.44c.08,0,.16,0,.25,0h17.67c7.48,0,13.57-6.09,13.57-13.58s-6.09-13.57-13.57-13.57c-.3,0-.59,.05-.87,.08l-.32,.04c-.08,.02-.16,.03-.24,.04-2.22,.24-4.37,1.04-6.22,2.32-1.02,.71-2.42,.46-3.13-.57-.71-1.02-.45-2.42,.57-3.13,1.42-.99,2.98-1.76,4.62-2.3-3.43-3.73-8.25-5.88-13.41-5.88-7.36,0-13.92,4.43-16.76,11.04,2.67,.51,5.17,1.69,7.13,3.39,.94,.81,1.04,2.23,.23,3.17-.81,.94-2.24,1.04-3.17,.23-1.86-1.61-4.55-2.57-7.21-2.58Z"/>
  </g>
</svg>