<?xml version="1.0" encoding="UTF-8"?>
<svg id="Layer_2" data-name="Layer 2" xmlns="http://www.w3.org/2000/svg" viewBox="0 0 100.54 51.83">
  <defs>
    <style>
      .cls-1 {
        fill: #231f20;
      }
    </style>
  </defs>
  <g id="Layer_1-2" data-name="Layer 1">
    <path class="cls-1" d="M50.27,51.83C23.07,51.83,1.49,28.43,.58,27.43c-.78-.86-.78-2.17,0-3.03C1.49,23.41,23.07,0,50.27,0s48.78,23.41,49.69,24.4c.78,.86,.78,2.17,0,3.03-.91,1-22.48,24.4-49.69,24.4ZM5.4,25.91c5.21,5.11,23.52,21.42,44.87,21.42s39.65-16.3,44.87-21.42c-5.22-5.11-23.53-21.42-44.87-21.42S10.61,20.8,5.4,25.91Zm44.87,19.69c-10.86,0-19.69-8.83-19.69-19.69S39.41,6.23,50.27,6.23s19.69,8.83,19.69,19.69-8.83,19.69-19.69,19.69Zm0-34.88c-8.38,0-15.19,6.81-15.19,15.19s6.81,15.19,15.19,15.19,15.19-6.81,15.19-15.19-6.81-15.19-15.19-15.19Zm7.55,24.58c-1.24,0-2.25-1.01-2.25-2.25v-14.28c0-1.24,1.01-2.25,2.25-2.25s2.25,1.01,2.25,2.25v14.28c0,1.24-1.01,2.25-2.25,2.25Zm-7.43,0c-1.24,0-2.25-1.01-2.25-2.25v-4.29h-3.17v4.29c0,1.24-1.01,2.25-2.25,2.25s-2.25-1.01-2.25-2.25v-10.45c0-3.35,2.73-6.08,6.08-6.08s6.08,2.73,6.08,6.08v10.45c0,1.24-1.01,2.25-2.25,2.25Zm-5.42-11.04h3.17v-1.66c0-.87-.71-1.58-1.58-1.58s-1.58,.71-1.58,1.58v1.66Z"/>
  </g>
</svg>