<?xml version="1.0" encoding="UTF-8"?>
<svg id="Layer_2" data-name="Layer 2" xmlns="http://www.w3.org/2000/svg" viewBox="0 0 76.12 75.56">
  <defs>
    <style>
      .cls-1 {
        fill: #231f20;
      }
    </style>
  </defs>
  <g id="Layer_1-2" data-name="Layer 1">
    <path class="cls-1" d="M25.23,12.62C25.23,5.66,19.57,0,12.62,0S0,5.66,0,12.62s5.66,12.62,12.62,12.62,12.62-5.66,12.62-12.62Zm-20.73,0c0-4.48,3.64-8.12,8.12-8.12s8.12,3.64,8.12,8.12-3.64,8.12-8.12,8.12-8.12-3.64-8.12-8.12Zm10.37,31.02v16.43c0,2.54,2.07,4.6,4.6,4.6h19.67c1.24,0,2.25,1.01,2.25,2.25s-1.01,2.25-2.25,2.25H19.47c-5.02,0-9.1-4.08-9.1-9.1v-27.75c0-1.24,1.01-2.25,2.25-2.25s2.25,1.01,2.25,2.25v3.51c0,2.54,2.07,4.6,4.6,4.6h19.67c1.24,0,2.25,1.01,2.25,2.25s-1.01,2.25-2.25,2.25H19.47c-1.69,0-3.25-.49-4.6-1.29Zm38,7.68h14.62c4.76,0,8.64-3.87,8.64-8.64s-3.87-8.63-8.64-8.63h-14.62c-4.76,0-8.64,3.87-8.64,8.63s3.87,8.64,8.64,8.64Zm0-12.77h14.62c2.28,0,4.14,1.85,4.14,4.13s-1.85,4.14-4.14,4.14h-14.62c-2.28,0-4.14-1.85-4.14-4.14s1.85-4.13,4.14-4.13Zm14.62,19.74h-14.62c-4.76,0-8.64,3.87-8.64,8.63s3.87,8.64,8.64,8.64h14.62c4.76,0,8.64-3.87,8.64-8.64s-3.87-8.63-8.64-8.63Zm0,12.77h-14.62c-2.28,0-4.14-1.85-4.14-4.14s1.85-4.13,4.14-4.13h14.62c2.28,0,4.14,1.85,4.14,4.13s-1.85,4.14-4.14,4.14Z"/>
  </g>
</svg>