<?xml version="1.0" encoding="UTF-8"?>
<svg id="Layer_2" data-name="Layer 2" xmlns="http://www.w3.org/2000/svg" viewBox="0 0 79.21 81.16">
  <defs>
    <style>
      .cls-1 {
        fill: #231f20;
      }
    </style>
  </defs>
  <g id="Layer_1-2" data-name="Layer 1">
    <path class="cls-1" d="M39.6,30.93c8.53,0,15.46-6.94,15.46-15.46S48.13,0,39.6,0s-15.47,6.94-15.47,15.46,6.94,15.46,15.47,15.46Zm0-26.43c6.05,0,10.96,4.92,10.96,10.96s-4.92,10.96-10.96,10.96-10.97-4.92-10.97-10.96,4.92-10.96,10.97-10.96ZM10.28,60.61c-5.67,0-10.28,4.61-10.28,10.28s4.61,10.28,10.28,10.28,10.28-4.61,10.28-10.28-4.61-10.28-10.28-10.28Zm0,16.06c-3.19,0-5.78-2.59-5.78-5.78s2.59-5.78,5.78-5.78,5.78,2.59,5.78,5.78-2.59,5.78-5.78,5.78Zm29.32-16.06c-5.67,0-10.28,4.61-10.28,10.28s4.61,10.28,10.28,10.28,10.28-4.61,10.28-10.28-4.61-10.28-10.28-10.28Zm0,16.06c-3.19,0-5.78-2.59-5.78-5.78s2.59-5.78,5.78-5.78,5.78,2.59,5.78,5.78-2.59,5.78-5.78,5.78Zm29.32-16.06c-5.67,0-10.28,4.61-10.28,10.28s4.61,10.28,10.28,10.28,10.28-4.61,10.28-10.28-4.61-10.28-10.28-10.28Zm0,16.06c-3.19,0-5.78-2.59-5.78-5.78s2.59-5.78,5.78-5.78,5.78,2.59,5.78,5.78-2.59,5.78-5.78,5.78Zm-14.1-35.09h-12.98v11.85c0,1.24-1.01,2.25-2.25,2.25s-2.25-1.01-2.25-2.25v-11.85h-12.98c-6.53,0-11.85,5.32-11.85,11.85,0,1.24-1.01,2.25-2.25,2.25s-2.25-1.01-2.25-2.25c0-9.01,7.33-16.35,16.35-16.35h30.45c9.01,0,16.35,7.33,16.35,16.35v1.73c0,1.24-1.01,2.25-2.25,2.25s-2.25-1.01-2.25-2.25v-1.73c0-6.53-5.32-11.85-11.85-11.85Z"/>
  </g>
</svg>