<?xml version="1.0" encoding="UTF-8"?>
<svg id="Layer_2" data-name="Layer 2" xmlns="http://www.w3.org/2000/svg" viewBox="0 0 66.3 67.5">
  <defs>
    <style>
      .cls-1 {
        fill: #231f20;
      }
    </style>
  </defs>
  <g id="Layer_1-2" data-name="Layer 1">
    <path class="cls-1" d="M0,17.4V2.25C0,1.01,1.01,0,2.25,0s2.25,1.01,2.25,2.25v15.15c0,1.24-1.01,2.25-2.25,2.25s-2.25-1.01-2.25-2.25Zm13.38,2.25c1.24,0,2.25-1.01,2.25-2.25V2.25c0-1.24-1.01-2.25-2.25-2.25s-2.25,1.01-2.25,2.25v15.15c0,1.24,1.01,2.25,2.25,2.25ZM64.05,0c-1.24,0-2.25,1.01-2.25,2.25v15.15c0,1.24,1.01,2.25,2.25,2.25s2.25-1.01,2.25-2.25V2.25c0-1.24-1.01-2.25-2.25-2.25ZM28.46,19.65c-4.44,0-8.06-3.2-8.06-7.14V7.14c0-3.93,3.62-7.14,8.06-7.14s8.06,3.2,8.06,7.14v5.37c0,3.94-3.62,7.14-8.06,7.14Zm3.56-12.51c0-1.43-1.63-2.64-3.56-2.64s-3.56,1.21-3.56,2.64v5.37c0,1.43,1.63,2.64,3.56,2.64s3.56-1.21,3.56-2.64V7.14Zm17.14,12.51c-4.44,0-8.06-3.2-8.06-7.14V7.14c0-3.93,3.62-7.14,8.06-7.14s8.06,3.2,8.06,7.14v5.37c0,3.94-3.62,7.14-8.06,7.14Zm3.56-12.51c0-1.43-1.63-2.64-3.56-2.64s-3.56,1.21-3.56,2.64v5.37c0,1.43,1.63,2.64,3.56,2.64s3.56-1.21,3.56-2.64V7.14Zm-.7,19.04v15.15c0,1.24,1.01,2.25,2.25,2.25s2.25-1.01,2.25-2.25v-15.15c0-1.24-1.01-2.25-2.25-2.25s-2.25,1.01-2.25,2.25Zm-27.69-2.25c-1.24,0-2.25,1.01-2.25,2.25v15.15c0,1.24,1.01,2.25,2.25,2.25s2.25-1.01,2.25-2.25v-15.15c0-1.24-1.01-2.25-2.25-2.25Zm39.71,0c-1.24,0-2.25,1.01-2.25,2.25v15.15c0,1.24,1.01,2.25,2.25,2.25s2.25-1.01,2.25-2.25v-15.15c0-1.24-1.01-2.25-2.25-2.25ZM8.06,43.57c-4.44,0-8.06-3.2-8.06-7.14v-5.37c0-3.94,3.62-7.14,8.06-7.14s8.06,3.2,8.06,7.14v5.37c0,3.93-3.62,7.14-8.06,7.14Zm3.56-12.51c0-1.43-1.63-2.64-3.56-2.64s-3.56,1.21-3.56,2.64v5.37c0,1.43,1.63,2.64,3.56,2.64s3.56-1.21,3.56-2.64v-5.37Zm36.23,0v5.37c0,3.93-3.62,7.14-8.06,7.14s-8.06-3.2-8.06-7.14v-5.37c0-3.94,3.62-7.14,8.06-7.14s8.06,3.2,8.06,7.14Zm-4.5,0c0-1.43-1.63-2.64-3.56-2.64s-3.56,1.21-3.56,2.64v5.37c0,1.43,1.63,2.64,3.56,2.64s3.56-1.21,3.56-2.64v-5.37ZM2.25,47.85c-1.24,0-2.25,1.01-2.25,2.25v15.15c0,1.24,1.01,2.25,2.25,2.25s2.25-1.01,2.25-2.25v-15.15c0-1.24-1.01-2.25-2.25-2.25Zm22.66,7.14v5.37c0,3.94-3.62,7.14-8.06,7.14s-8.06-3.2-8.06-7.14v-5.37c0-3.94,3.62-7.14,8.06-7.14s8.06,3.2,8.06,7.14Zm-4.5,0c0-1.43-1.63-2.64-3.56-2.64s-3.56,1.21-3.56,2.64v5.37c0,1.43,1.63,2.64,3.56,2.64s3.56-1.21,3.56-2.64v-5.37Zm25.2,0v5.37c0,3.94-3.62,7.14-8.06,7.14s-8.06-3.2-8.06-7.14v-5.37c0-3.94,3.62-7.14,8.06-7.14s8.06,3.2,8.06,7.14Zm-4.5,0c0-1.43-1.63-2.64-3.56-2.64s-3.56,1.21-3.56,2.64v5.37c0,1.43,1.63,2.64,3.56,2.64s3.56-1.21,3.56-2.64v-5.37Zm25.2,0v5.37c0,3.94-3.62,7.14-8.06,7.14s-8.06-3.2-8.06-7.14v-5.37c0-3.94,3.62-7.14,8.06-7.14s8.06,3.2,8.06,7.14Zm-4.5,0c0-1.43-1.63-2.64-3.56-2.64s-3.56,1.21-3.56,2.64v5.37c0,1.43,1.63,2.64,3.56,2.64s3.56-1.21,3.56-2.64v-5.37Z"/>
  </g>
</svg>