<?xml version="1.0" encoding="UTF-8"?>
<svg id="Layer_2" data-name="Layer 2" xmlns="http://www.w3.org/2000/svg" viewBox="0 0 66.17 75.56">
  <defs>
    <style>
      .cls-1 {
        fill: #231f20;
      }
    </style>
  </defs>
  <g id="Layer_1-2" data-name="Layer 1">
    <path class="cls-1" d="M66.02,7.06c0-.82-.45-1.58-1.17-1.98s-1.61-.36-2.3,.08c-3.46,2.23-7.38,3.41-11.35,3.41-6.18,0-12.01-2.77-16.43-7.81-.02-.02-.04-.02-.06-.04-.15-.16-.34-.28-.53-.4-.07-.04-.13-.1-.2-.14-.28-.12-.58-.2-.9-.2s-.63,.07-.9,.2c-.08,.03-.13,.1-.2,.14-.19,.11-.38,.23-.53,.39-.02,.02-.04,.02-.06,.04-4.42,5.04-10.25,7.81-16.43,7.81-3.96,0-7.89-1.18-11.35-3.41-.69-.45-1.57-.48-2.3-.08-.72,.39-1.17,1.15-1.17,1.98C.15,9.11,0,36.9,0,36.9c-.04,9.56,4.17,18.33,11.29,23.46l20.48,14.77c.39,.28,.85,.42,1.32,.42s.92-.14,1.32-.42l20.48-14.77c7.11-5.13,11.33-13.9,11.29-23.46h0s-.15-27.79-.15-29.84Zm-32.94,13.36c1.93,0,3.5,1.57,3.5,3.5s-1.57,3.5-3.5,3.5-3.5-1.57-3.5-3.5,1.57-3.5,3.5-3.5Zm-10.75,27.04c-1.93,0-3.5-1.57-3.5-3.5s1.57-3.5,3.5-3.5,3.5,1.57,3.5,3.5-1.57,3.5-3.5,3.5Zm21.5,0c-1.93,0-3.5-1.57-3.5-3.5s1.57-3.5,3.5-3.5,3.5,1.57,3.5,3.5-1.57,3.5-3.5,3.5Zm8.42,9.26l-6.17,4.45v-9.57c3.31-.98,5.75-4.01,5.75-7.64,0-4.41-3.59-8-8-8s-8,3.59-8,8c0,3.63,2.44,6.66,5.75,7.64v12.81l-8.5,6.13-8.5-6.13v-12.81c3.31-.98,5.75-4.01,5.75-7.64,0-4.41-3.59-8-8-8s-8,3.59-8,8c0,3.63,2.44,6.66,5.75,7.64v9.57l-6.17-4.45c-5.85-4.21-9.46-11.8-9.42-19.79,0,0,.1-17.98,.13-26.09,3.27,1.48,6.79,2.25,10.33,2.25,5.76,0,11.24-1.97,15.87-5.62v8.82c-3.31,.98-5.75,4.01-5.75,7.64,0,4.41,3.59,8,8,8s8-3.59,8-8c0-3.62-2.44-6.66-5.75-7.64V7.46c4.63,3.64,10.11,5.62,15.87,5.62,3.55,0,7.06-.77,10.33-2.25,.04,8.12,.13,26.09,.13,26.09,.04,7.99-3.57,15.57-9.42,19.79Z"/>
  </g>
</svg>