<?xml version="1.0" encoding="UTF-8"?>
<svg id="Layer_2" data-name="Layer 2" xmlns="http://www.w3.org/2000/svg" viewBox="0 0 71.73 75.12">
  <defs>
    <style>
      .cls-1 {
        fill: #231f20;
      }
    </style>
  </defs>
  <g id="Layer_1-2" data-name="Layer 1">
    <path class="cls-1" d="M71.73,27.47c0-9.97-8.11-18.07-18.07-18.07-.2,0-.4,0-.59,.02C48.78,3.5,41.99,0,34.64,0,24.88,0,16.25,6.25,13.12,15.38,5.64,16.37,0,22.67,0,30.38s6.12,14.52,14.12,15.16h.04v4.77c-3.57,.99-6.2,4.23-6.2,8.11,0,4.66,3.79,8.45,8.45,8.45s8.45-3.79,8.45-8.45c0-3.88-2.64-7.12-6.2-8.11v-4.77h14.95v13.02c-3.57,.99-6.2,4.23-6.2,8.11,0,4.66,3.79,8.45,8.45,8.45s8.45-3.79,8.45-8.45c0-3.88-2.64-7.12-6.2-8.11v-13.02h14.95v4.77c-3.57,.99-6.2,4.23-6.2,8.11,0,4.66,3.79,8.45,8.45,8.45s8.45-3.79,8.45-8.45c0-3.88-2.64-7.12-6.2-8.11v-5.21c8.09-1.79,14.16-9.01,14.16-17.63ZM20.36,58.42c0,2.18-1.77,3.95-3.95,3.95s-3.95-1.77-3.95-3.95,1.77-3.95,3.95-3.95,3.95,1.77,3.95,3.95Zm19.45,8.25c0,2.18-1.77,3.95-3.95,3.95s-3.95-1.77-3.95-3.95,1.77-3.95,3.95-3.95,3.95,1.77,3.95,3.95ZM4.5,30.38c0-5.8,4.55-10.46,10.35-10.63,2.66,0,5.35,.97,7.21,2.58,.42,.37,.95,.55,1.47,.55,.63,0,1.26-.26,1.7-.78,.81-.94,.71-2.36-.23-3.17-1.96-1.69-4.45-2.84-7.11-3.36,2.84-6.62,9.38-11.07,16.74-11.07,5.17,0,9.97,2.18,13.4,5.92-1.63,.54-3.19,1.28-4.6,2.26-1.02,.71-1.28,2.11-.57,3.13,.44,.63,1.14,.97,1.85,.97,.44,0,.89-.13,1.28-.4,1.84-1.28,3.99-2.08,6.22-2.32,.02,0,.03-.01,.05-.02l.53-.07c.28-.04,.57-.08,.86-.08,7.48,0,13.57,6.09,13.57,13.57s-6.09,13.57-13.57,13.57h-17.77s-.01,0-.02,0-.01,0-.02,0H16.44s-.02,0-.03,0-.02,0-.03,0h-2.07c-5.5-.45-9.8-5.13-9.8-10.67Zm54.77,28.04c0,2.18-1.77,3.95-3.95,3.95s-3.95-1.77-3.95-3.95,1.77-3.95,3.95-3.95,3.95,1.77,3.95,3.95Z"/>
  </g>
</svg>