<?xml version="1.0" encoding="UTF-8"?>
<svg id="Layer_2" data-name="Layer 2" xmlns="http://www.w3.org/2000/svg" viewBox="0 0 78.31 78.31">
  <defs>
    <style>
      .cls-1 {
        fill: #231f20;
      }
    </style>
  </defs>
  <g id="Layer_1-2" data-name="Layer 1">
    <path class="cls-1" d="M75.59,62.42l-16.97-16.97c6.11-11.72,4.25-26.54-5.58-36.36C40.93-3.03,21.21-3.03,9.09,9.09c-12.12,12.12-12.12,31.84,0,43.96,6.06,6.06,14.02,9.09,21.98,9.09,4.95,0,9.89-1.17,14.38-3.52l16.97,16.97c1.81,1.82,4.2,2.72,6.59,2.72s4.77-.91,6.59-2.72c3.63-3.63,3.63-9.54,0-13.17ZM12.27,49.87C1.91,39.5,1.91,22.64,12.27,12.27c5.18-5.18,11.99-7.77,18.8-7.77s13.62,2.59,18.8,7.77c8.78,8.78,10.09,22.2,4.01,32.41-.56,.94-1.17,1.83-1.82,2.68-.03,.04-.06,.08-.09,.12-.66,.85-1.36,1.66-2.1,2.39s-1.54,1.44-2.39,2.1c-.04,.03-.08,.06-.12,.09-.84,.64-1.73,1.25-2.67,1.82-10.21,6.09-23.63,4.77-32.41-4Zm60.14,22.54c-1.88,1.88-4.93,1.88-6.81,0l-16.23-16.23c.14-.1,.28-.22,.42-.33,.43-.32,.85-.64,1.26-.99,.7-.58,1.37-1.18,2-1.81s1.23-1.3,1.81-2c.35-.41,.67-.84,.99-1.26,.11-.14,.22-.27,.33-.42l16.23,16.23c1.88,1.88,1.88,4.93,0,6.81ZM26.68,20.38c-3.74,0-6.78,3.04-6.78,6.78v12.35c0,1.24,1.01,2.25,2.25,2.25s2.25-1.01,2.25-2.25v-5.47h4.56v5.47c0,1.24,1.01,2.25,2.25,2.25s2.25-1.01,2.25-2.25v-12.35c0-3.74-3.04-6.78-6.78-6.78Zm-2.28,9.15v-2.37c0-1.26,1.02-2.28,2.28-2.28s2.28,1.02,2.28,2.28v2.37h-4.56Zm17.83-6.9v16.87c0,1.24-1.01,2.25-2.25,2.25s-2.25-1.01-2.25-2.25V22.63c0-1.24,1.01-2.25,2.25-2.25s2.25,1.01,2.25,2.25Z"/>
  </g>
</svg>