<?xml version="1.0" encoding="UTF-8"?>
<svg id="Layer_2" data-name="Layer 2" xmlns="http://www.w3.org/2000/svg" viewBox="0 0 78.27 82.55">
  <defs>
    <style>
      .cls-1 {
        fill: #231f20;
      }
    </style>
  </defs>
  <g id="Layer_1-2" data-name="Layer 1">
    <path class="cls-1" d="M53.63,82.55h-8.98c-1.24,0-2.25-1.01-2.25-2.25v-23.29c0-.24,.04-.48,.11-.7l4.96-15.1c-1.95-1.46-3.22-3.79-3.22-6.41,0-4.41,3.59-8,8-8s8,3.59,8,8-4.03,8.29-8.55,7.98l-4.8,14.59v20.68h4.48v-9.47c0-1.24,1.01-2.25,2.25-2.25h9.41c1.21,0,2.19-.98,2.19-2.19v-14.18c0-1.24,1.01-2.25,2.25-2.25h4.91l-8.52-17.18c-.19-.38-.27-.81-.22-1.24,.01-.12,1.17-12.14-6.88-19.29-6.51-5.78-17.25-7.03-31.94-3.71-9.03,2.04-15.16,6.65-18.22,13.69-4,9.21-2.3,22.1,4.45,33.63,4.42,7.56,6.86,15.96,7.11,24.43h6.14v-20.68l-4.49-13.65c-.28,.03-.57,.05-.87,.05-4.41,0-8-3.59-8-8s3.59-8,8-8,8,3.59,8,8c0,2.5-1.16,4.74-2.96,6.21l4.71,14.33c.07,.23,.11,.46,.11,.7v23.29c0,1.24-1.01,2.25-2.25,2.25H15.94c-.6,0-1.18-.24-1.6-.67s-.66-1.01-.65-1.62c.14-8.41-2.11-16.84-6.51-24.37C-.28,43.14-2.07,28.7,2.49,18.2,6.1,9.89,13.48,4.26,23.84,1.91,40.05-1.75,52.14-.15,59.79,6.68c8.66,7.72,8.56,19.44,8.38,22.42l9.86,19.88c.35,.7,.31,1.52-.1,2.19-.41,.66-1.13,1.06-1.91,1.06h-6.29v11.93c0,3.69-3,6.69-6.69,6.69h-7.16v9.47c0,1.24-1.01,2.25-2.25,2.25ZM18.95,32.27c-1.93,0-3.5,1.57-3.5,3.5s1.57,3.5,3.5,3.5c.5,0,.97-.1,1.39-.29,.02,0,.04-.02,.06-.03,1.2-.55,2.04-1.77,2.04-3.18,0-1.93-1.57-3.5-3.5-3.5Zm33.31-.97c-1.93,0-3.5,1.57-3.5,3.5s1.57,3.5,3.5,3.5,3.5-1.57,3.5-3.5-1.57-3.5-3.5-3.5Zm-16.65,51.25c-1.24,0-2.25-1.01-2.25-2.25V32.86c-3.32-.97-5.75-4.05-5.75-7.67,0-4.41,3.59-8,8-8s8,3.59,8,8c0,3.63-2.43,6.7-5.75,7.67v47.44c0,1.24-1.01,2.25-2.25,2.25Zm0-60.86c-1.93,0-3.5,1.57-3.5,3.5s1.57,3.5,3.5,3.5,3.5-1.57,3.5-3.5-1.57-3.5-3.5-3.5Z"/>
  </g>
</svg>