<?xml version="1.0" encoding="UTF-8"?>
<svg id="Layer_2" data-name="Layer 2" xmlns="http://www.w3.org/2000/svg" viewBox="0 0 84.94 84.94">
  <defs>
    <style>
      .cls-1 {
        fill: #231f20;
      }
    </style>
  </defs>
  <g id="Layer_1-2" data-name="Layer 1">
    <path class="cls-1" d="M38.36,32.31c-3.58,0-6.49,2.91-6.49,6.49v11.57c0,1.24,1.01,2.25,2.25,2.25s2.25-1.01,2.25-2.25v-4.99h3.99v4.99c0,1.24,1.01,2.25,2.25,2.25s2.25-1.01,2.25-2.25v-11.57c0-3.58-2.91-6.49-6.49-6.49Zm-1.99,8.58v-2.08c0-1.1,.9-1.99,1.99-1.99s1.99,.9,1.99,1.99v2.08h-3.99Zm16.71-6.33v15.81c0,1.24-1.01,2.25-2.25,2.25s-2.25-1.01-2.25-2.25v-15.81c0-1.24,1.01-2.25,2.25-2.25s2.25,1.01,2.25,2.25Zm24.32,9.74c-3.37,0-6.2,2.24-7.16,5.29h-6.99v-14.25h6.99c.96,3.06,3.79,5.29,7.16,5.29,4.16,0,7.54-3.38,7.54-7.54s-3.38-7.54-7.54-7.54c-3.37,0-6.2,2.24-7.16,5.29h-7c-.02-5.04-4.11-9.12-9.15-9.15v-7c3.06-.96,5.29-3.79,5.29-7.16,0-4.16-3.38-7.54-7.54-7.54s-7.54,3.38-7.54,7.54c0,3.37,2.24,6.2,5.29,7.16v6.99h-14.25v-6.99c3.06-.96,5.29-3.79,5.29-7.16,0-4.16-3.38-7.54-7.54-7.54s-7.54,3.38-7.54,7.54c0,3.37,2.24,6.2,5.29,7.16v7c-5.03,.02-9.12,4.11-9.15,9.15h-7c-.96-3.06-3.79-5.29-7.16-5.29-4.16,0-7.54,3.38-7.54,7.54s3.38,7.54,7.54,7.54c3.37,0,6.2-2.24,7.16-5.29h6.99v14.25h-6.99c-.96-3.06-3.79-5.29-7.16-5.29-4.16,0-7.54,3.38-7.54,7.54s3.38,7.54,7.54,7.54c3.37,0,6.2-2.24,7.16-5.29h7c.02,5.04,4.11,9.13,9.15,9.15v7c-3.06,.96-5.29,3.79-5.29,7.16,0,4.16,3.38,7.54,7.54,7.54s7.54-3.38,7.54-7.54c0-3.37-2.24-6.2-5.29-7.16v-6.99h14.25v6.99c-3.06,.96-5.29,3.79-5.29,7.16,0,4.16,3.38,7.54,7.54,7.54s7.54-3.38,7.54-7.54c0-3.37-2.24-6.2-5.29-7.16v-7c5.03-.02,9.12-4.11,9.15-9.15h7c.96,3.06,3.79,5.29,7.16,5.29,4.16,0,7.54-3.38,7.54-7.54s-3.38-7.54-7.54-7.54Zm0-14.25c1.68,0,3.04,1.36,3.04,3.04s-1.37,3.04-3.04,3.04-3.04-1.37-3.04-3.04,1.36-3.04,3.04-3.04ZM51.84,4.5c1.68,0,3.04,1.36,3.04,3.04s-1.36,3.04-3.04,3.04-3.04-1.36-3.04-3.04,1.36-3.04,3.04-3.04Zm-18.75,0c1.68,0,3.04,1.36,3.04,3.04s-1.36,3.04-3.04,3.04-3.04-1.36-3.04-3.04,1.36-3.04,3.04-3.04ZM7.54,36.14c-1.68,0-3.04-1.37-3.04-3.04s1.36-3.04,3.04-3.04,3.04,1.36,3.04,3.04-1.36,3.04-3.04,3.04Zm0,18.75c-1.68,0-3.04-1.37-3.04-3.04s1.36-3.04,3.04-3.04,3.04,1.36,3.04,3.04-1.36,3.04-3.04,3.04Zm25.55,25.55c-1.68,0-3.04-1.36-3.04-3.04s1.36-3.04,3.04-3.04,3.04,1.36,3.04,3.04-1.36,3.04-3.04,3.04Zm18.75,0c-1.68,0-3.04-1.36-3.04-3.04s1.36-3.04,3.04-3.04,3.04,1.36,3.04,3.04-1.36,3.04-3.04,3.04Zm6.9-26.38c0,2.59-2.1,4.69-4.69,4.69H30.88c-2.58,0-4.69-2.1-4.69-4.69V30.88c0-2.59,2.1-4.69,4.69-4.69h23.17c2.58,0,4.69,2.1,4.69,4.69v23.17Zm18.65,.83c-1.68,0-3.04-1.37-3.04-3.04s1.36-3.04,3.04-3.04,3.04,1.36,3.04,3.04-1.37,3.04-3.04,3.04Z"/>
  </g>
</svg>