<?xml version="1.0" encoding="UTF-8"?>
<svg id="Layer_2" data-name="Layer 2" xmlns="http://www.w3.org/2000/svg" viewBox="0 0 78.85 78.85">
  <defs>
    <style>
      .cls-1 {
        fill: #231f20;
      }
    </style>
  </defs>
  <g id="Layer_1-2" data-name="Layer 1">
    <path class="cls-1" d="M59.13,78.85c-1.24,0-2.25-1.01-2.25-2.25v-4.87h-15.21v4.87c0,1.24-1.01,2.25-2.25,2.25s-2.25-1.01-2.25-2.25v-4.87h-15.21v4.87c0,1.24-1.01,2.25-2.25,2.25s-2.25-1.01-2.25-2.25v-4.87h-.59c-5.38,0-9.76-4.38-9.76-9.76v-.59H2.25c-1.24,0-2.25-1.01-2.25-2.25s1.01-2.25,2.25-2.25H7.12v-15.21H2.25c-1.24,0-2.25-1.01-2.25-2.25s1.01-2.25,2.25-2.25H7.12v-15.21H2.25c-1.24,0-2.25-1.01-2.25-2.25s1.01-2.25,2.25-2.25H7.12v-.59c0-5.38,4.38-9.76,9.76-9.76h.59V2.25c0-1.24,1.01-2.25,2.25-2.25s2.25,1.01,2.25,2.25V7.12h15.21V2.25c0-1.24,1.01-2.25,2.25-2.25s2.25,1.01,2.25,2.25V7.12h15.21V2.25c0-1.24,1.01-2.25,2.25-2.25s2.25,1.01,2.25,2.25V7.12h.59c5.38,0,9.76,4.38,9.76,9.76v.59h4.87c1.24,0,2.25,1.01,2.25,2.25s-1.01,2.25-2.25,2.25h-4.87v15.21h4.87c1.24,0,2.25,1.01,2.25,2.25s-1.01,2.25-2.25,2.25h-4.87v15.21h4.87c1.24,0,2.25,1.01,2.25,2.25s-1.01,2.25-2.25,2.25h-4.87v.59c0,5.38-4.38,9.76-9.76,9.76h-.59v4.87c0,1.24-1.01,2.25-2.25,2.25Zm0-11.62h2.84c2.9,0,5.26-2.36,5.26-5.26V16.88c0-2.9-2.36-5.26-5.26-5.26H16.88c-2.9,0-5.26,2.36-5.26,5.26V61.97c0,2.9,2.36,5.26,5.26,5.26H59.13Zm-4.67-5.85h-5.53c-1.24,0-2.25-1.01-2.25-2.25s1.01-2.25,2.25-2.25h5.53c1.48,0,2.68-1.2,2.68-2.67v-5.15c0-1.24,1.01-2.25,2.25-2.25s2.25,1.01,2.25,2.25v5.15c0,3.96-3.22,7.17-7.18,7.17Zm-24.29,0h-5.53c-3.96,0-7.18-3.22-7.18-7.17v-5.15c0-1.24,1.01-2.25,2.25-2.25s2.25,1.01,2.25,2.25v5.15c0,1.48,1.2,2.67,2.68,2.67h5.53c1.24,0,2.25,1.01,2.25,2.25s-1.01,2.25-2.25,2.25Zm17.23-12.16c-1.24,0-2.25-1.01-2.25-2.25v-15.09c0-1.24,1.01-2.25,2.25-2.25s2.25,1.01,2.25,2.25v15.09c0,1.24-1.01,2.25-2.25,2.25Zm-7.85,0c-1.24,0-2.25-1.01-2.25-2.25v-4.65h-3.6v4.65c0,1.24-1.01,2.25-2.25,2.25s-2.25-1.01-2.25-2.25v-11.04c0-3.47,2.83-6.3,6.3-6.3s6.3,2.83,6.3,6.3v11.04c0,1.24-1.01,2.25-2.25,2.25Zm-5.85-11.4h3.6v-1.88c0-.99-.81-1.8-1.8-1.8s-1.8,.81-1.8,1.8v1.88Zm25.68-5.77c-1.24,0-2.25-1.01-2.25-2.25v-5.15c0-1.48-1.2-2.68-2.68-2.68h-5.53c-1.24,0-2.25-1.01-2.25-2.25s1.01-2.25,2.25-2.25h5.53c3.96,0,7.18,3.22,7.18,7.18v5.15c0,1.24-1.01,2.25-2.25,2.25Zm-39.67,0c-1.24,0-2.25-1.01-2.25-2.25v-5.15c0-3.96,3.22-7.18,7.18-7.18h5.53c1.24,0,2.25,1.01,2.25,2.25s-1.01,2.25-2.25,2.25h-5.53c-1.48,0-2.68,1.2-2.68,2.68v5.15c0,1.24-1.01,2.25-2.25,2.25Z"/>
  </g>
</svg>