<?xml version="1.0" encoding="UTF-8"?>
<svg id="Layer_2" data-name="Layer 2" xmlns="http://www.w3.org/2000/svg" viewBox="0 0 71.6 75.5">
  <defs>
    <style>
      .cls-1 {
        fill: #231f20;
      }
    </style>
  </defs>
  <g id="Layer_1-2" data-name="Layer 1">
    <path class="cls-1" d="M71.37,44.66l-8.94-18.04c.16-2.82,.19-13.47-7.7-20.5C47.72-.13,36.66-1.6,21.85,1.75,12.36,3.89,5.59,9.05,2.28,16.67-1.9,26.28-.26,39.49,6.55,51.15c3.98,6.82,6.02,14.45,5.9,22.06-.01,.6,.22,1.19,.65,1.61,.42,.43,1,.67,1.6,.67H48.98c1.24,0,2.25-1.01,2.25-2.25v-8.41h6.31c3.47,0,6.29-2.82,6.29-6.29v-10.64h5.52c.78,0,1.5-.4,1.91-1.06,.41-.66,.45-1.49,.1-2.19Zm-9.79-1.25c-1.24,0-2.25,1.01-2.25,2.25v12.89c0,.99-.8,1.79-1.79,1.79h-8.56c-1.24,0-2.25,1.01-2.25,2.25v8.41H16.93c-.27-7.67-2.49-15.27-6.49-22.12-6.1-10.44-7.65-22.09-4.03-30.41,2.75-6.34,8.28-10.49,16.43-12.33,13.29-3,23-1.89,28.87,3.32,7.24,6.43,6.2,17.27,6.19,17.37-.04,.42,.03,.86,.22,1.24l7.6,15.34h-4.14ZM26.75,19.5c-4,0-7.26,3.25-7.26,7.26v13.65c0,1.24,1.01,2.25,2.25,2.25s2.25-1.01,2.25-2.25v-6.29h5.52v6.29c0,1.24,1.01,2.25,2.25,2.25s2.25-1.01,2.25-2.25v-13.65c0-4-3.26-7.26-7.26-7.26Zm-2.76,10.12v-2.86c0-1.52,1.24-2.76,2.76-2.76s2.76,1.24,2.76,2.76v2.86h-5.52Zm19.72-7.87v18.66c0,1.24-1.01,2.25-2.25,2.25s-2.25-1.01-2.25-2.25V21.75c0-1.24,1.01-2.25,2.25-2.25s2.25,1.01,2.25,2.25Z"/>
  </g>
</svg>