<?xml version="1.0" encoding="UTF-8"?>
<svg id="Layer_2" data-name="Layer 2" xmlns="http://www.w3.org/2000/svg" viewBox="0 0 60.79 71.17">
  <defs>
    <style>
      .cls-1 {
        fill: #231f20;
      }
    </style>
  </defs>
  <g id="Layer_1-2" data-name="Layer 1">
    <path class="cls-1" d="M42.25,71.17H18.54c-1.24,0-2.25-1.01-2.25-2.25s1.01-2.25,2.25-2.25h23.7c1.24,0,2.25,1.01,2.25,2.25s-1.01,2.25-2.25,2.25Zm0-8.77H18.54c-1.24,0-2.25-1.01-2.25-2.25s1.01-2.25,2.25-2.25h23.7c1.24,0,2.25,1.01,2.25,2.25s-1.01,2.25-2.25,2.25Zm0-9.88c-1.24,0-2.25-1.01-2.25-2.25v-12.79c0-.5,.17-.99,.48-1.38l5.82-7.45c-1.63-1.56-2.65-3.76-2.65-6.2,0-4.73,3.85-8.58,8.58-8.58s8.58,3.85,8.58,8.58-3.85,8.58-8.58,8.58c-.65,0-1.29-.07-1.91-.21l-5.81,7.45v12.02c0,1.24-1.01,2.25-2.25,2.25Zm8.39-26.32c.48,.21,1.02,.32,1.58,.32,2.25,0,4.08-1.83,4.08-4.08s-1.83-4.08-4.08-4.08-4.08,1.83-4.08,4.08c0,1.57,.89,2.93,2.19,3.61,.11,.04,.21,.09,.31,.15Zm-20.24,26.32c-1.24,0-2.25-1.01-2.25-2.25V16.86c-3.64-.99-6.33-4.33-6.33-8.28C21.82,3.85,25.67,0,30.4,0s8.58,3.85,8.58,8.58c0,3.95-2.69,7.29-6.33,8.28V50.26c0,1.24-1.01,2.25-2.25,2.25Zm0-48.01c-2.25,0-4.08,1.83-4.08,4.08s1.83,4.08,4.08,4.08,4.08-1.83,4.08-4.08-1.83-4.08-4.08-4.08Zm-11.85,48.01c-1.24,0-2.25-1.01-2.25-2.25v-12.02l-5.81-7.44c-.61,.14-1.25,.21-1.91,.21C3.85,31.01,0,27.17,0,22.44S3.85,13.86,8.58,13.86s8.58,3.85,8.58,8.58c0,2.43-1.02,4.63-2.65,6.2l5.82,7.45c.31,.4,.48,.88,.48,1.38v12.79c0,1.24-1.01,2.25-2.25,2.25ZM8.58,18.36c-2.25,0-4.08,1.83-4.08,4.08s1.83,4.08,4.08,4.08c.56,0,1.09-.11,1.58-.32,.1-.06,.2-.11,.31-.15,1.3-.68,2.19-2.04,2.19-3.61,0-2.25-1.83-4.08-4.08-4.08Z"/>
  </g>
</svg>