<?xml version="1.0" encoding="UTF-8"?>
<svg id="Layer_2" data-name="Layer 2" xmlns="http://www.w3.org/2000/svg" viewBox="0 0 84.17 82.09">
  <defs>
    <style>
      .cls-1 {
        fill: #231f20;
      }
    </style>
  </defs>
  <g id="Layer_1-2" data-name="Layer 1">
    <path class="cls-1" d="M67.73,82.09H16.44c-4.01,0-7.28-3.27-7.28-7.28v-4.88h-1.51c-4.22,0-7.65-3.43-7.65-7.65v-6.44c0-4.22,3.43-7.65,7.65-7.65h24.72v-5.74h-8.4c-4.01,0-7.28-3.27-7.28-7.28v-4.49h-1.51c-4.22,0-7.65-3.43-7.65-7.65v-6.44c0-4.22,3.43-7.65,7.65-7.65h1.51v-1.67c0-4.01,3.27-7.28,7.28-7.28H60.2c4.01,0,7.28,3.27,7.28,7.28v1.67h1.51c4.22,0,7.65,3.43,7.65,7.65v6.44c0,4.22-3.43,7.65-7.65,7.65h-1.51v4.49c0,4.01-3.27,7.28-7.28,7.28h-8.4v5.74h24.72c4.22,0,7.65,3.43,7.65,7.65v6.44c0,4.22-3.43,7.65-7.65,7.65h-1.51v4.88c0,4.01-3.27,7.28-7.28,7.28ZM16.44,52.69c-1.53,0-2.78,1.25-2.78,2.78v19.34c0,1.53,1.25,2.78,2.78,2.78h51.3c1.53,0,2.78-1.25,2.78-2.78v-19.34c0-1.53-1.25-2.78-2.78-2.78H16.44Zm58.57,12.74h1.51c1.74,0,3.15-1.41,3.15-3.15v-6.44c0-1.74-1.41-3.15-3.15-3.15h-2.06c.35,.86,.55,1.8,.55,2.78v9.96ZM7.65,52.69c-1.74,0-3.15,1.41-3.15,3.15v6.44c0,1.74,1.41,3.15,3.15,3.15h1.51v-9.96c0-.98,.2-1.92,.55-2.78h-2.06Zm29.22-4.5h10.43v-5.74h-10.43v5.74Zm12.68-10.24h10.65c1.53,0,2.78-1.25,2.78-2.78V7.28c0-1.53-1.25-2.78-2.78-2.78H23.97c-1.53,0-2.78,1.25-2.78,2.78v27.9c0,1.53,1.25,2.78,2.78,2.78h25.58Zm17.93-11.76h1.51c1.74,0,3.15-1.41,3.15-3.15v-6.44c0-1.74-1.41-3.15-3.15-3.15h-1.51v12.74ZM15.18,13.45c-1.74,0-3.15,1.41-3.15,3.15v6.44c0,1.74,1.41,3.15,3.15,3.15h1.51V13.45h-1.51Zm36.04,18.68c-1.24,0-2.25-1.01-2.25-2.25V12.58c0-1.24,1.01-2.25,2.25-2.25s2.25,1.01,2.25,2.25V29.88c0,1.24-1.01,2.25-2.25,2.25Zm-9,0c-1.24,0-2.25-1.01-2.25-2.25v-5.67h-4.79v5.67c0,1.24-1.01,2.25-2.25,2.25s-2.25-1.01-2.25-2.25v-12.66c0-3.8,3.09-6.89,6.89-6.89s6.89,3.09,6.89,6.89v12.66c0,1.24-1.01,2.25-2.25,2.25Zm-7.04-12.42h4.79v-2.49c0-1.32-1.07-2.39-2.39-2.39s-2.39,1.07-2.39,2.39v2.49Z"/>
  </g>
</svg>