<?xml version="1.0" encoding="UTF-8"?>
<svg id="Layer_2" data-name="Layer 2" xmlns="http://www.w3.org/2000/svg" viewBox="0 0 78.17 82.93">
  <defs>
    <style>
      .cls-1 {
        fill: #231f20;
      }
    </style>
  </defs>
  <g id="Layer_1-2" data-name="Layer 1">
    <path class="cls-1" d="M44.83,82.93h-11.49c-1,0-1.87-.65-2.16-1.61l-3.34-11.24c-2.87-1.12-5.52-2.66-7.92-4.57l-11.4,2.72c-.97,.23-1.97-.2-2.47-1.06L.3,57.22c-.5-.86-.37-1.95,.31-2.67l8.05-8.5c-.24-1.55-.36-3.09-.36-4.58s.12-3.03,.36-4.58L.62,28.38c-.69-.72-.81-1.81-.31-2.67L6.05,15.76c.5-.86,1.5-1.29,2.47-1.06l11.4,2.72c2.4-1.91,5.05-3.45,7.92-4.57L31.18,1.61c.28-.95,1.16-1.61,2.16-1.61h11.49c1,0,1.87,.65,2.16,1.61l3.34,11.24c2.87,1.12,5.52,2.66,7.92,4.57l11.4-2.72c.97-.23,1.97,.2,2.47,1.06l5.75,9.95c.5,.86,.37,1.95-.31,2.67l-8.05,8.5c.24,1.55,.36,3.09,.36,4.58s-.12,3.03-.36,4.58l8.05,8.5c.69,.72,.81,1.81,.31,2.67l-5.75,9.95c-.5,.86-1.5,1.29-2.47,1.06l-11.4-2.72c-2.4,1.91-5.05,3.45-7.92,4.57l-3.34,11.24c-.28,.95-1.16,1.61-2.16,1.61Zm-9.81-4.5h8.13l3.18-10.71c.21-.69,.73-1.24,1.41-1.48,3.12-1.09,5.97-2.73,8.46-4.88,.55-.47,1.29-.65,1.99-.48l10.86,2.6,4.07-7.05-7.67-8.1c-.5-.52-.71-1.26-.58-1.96,.31-1.66,.47-3.31,.47-4.89s-.16-3.23-.47-4.89c-.13-.71,.08-1.44,.58-1.96l7.67-8.1-4.07-7.05-10.86,2.6c-.7,.17-1.45-.01-1.99-.48-2.49-2.15-5.33-3.79-8.46-4.88-.68-.24-1.21-.79-1.41-1.48l-3.18-10.71h-8.13l-3.18,10.71c-.21,.69-.73,1.24-1.41,1.48-3.12,1.09-5.97,2.73-8.46,4.88-.55,.47-1.29,.65-1.99,.48l-10.86-2.6-4.07,7.05,7.67,8.1c.5,.52,.71,1.26,.58,1.96-.31,1.66-.47,3.31-.47,4.89s.16,3.23,.47,4.89c.13,.71-.08,1.44-.58,1.96l-7.67,8.1,4.07,7.05,10.86-2.6c.7-.16,1.44,.01,1.99,.48,2.49,2.15,5.34,3.79,8.46,4.88,.68,.24,1.21,.79,1.41,1.48l3.18,10.71Zm4.07-14.62c-12.32,0-22.34-10.02-22.34-22.34s10.02-22.34,22.34-22.34,22.34,10.02,22.34,22.34-10.02,22.34-22.34,22.34Zm0-40.18c-9.84,0-17.84,8-17.84,17.84s8,17.84,17.84,17.84,17.84-8,17.84-17.84-8-17.84-17.84-17.84Zm7.57,27.26c-1.24,0-2.25-1.01-2.25-2.25v-14.33c0-1.24,1.01-2.25,2.25-2.25s2.25,1.01,2.25,2.25v14.33c0,1.24-1.01,2.25-2.25,2.25Zm-7.45,0c-1.24,0-2.25-1.01-2.25-2.25v-4.31h-3.19v4.31c0,1.24-1.01,2.25-2.25,2.25s-2.25-1.01-2.25-2.25v-10.49c0-3.36,2.73-6.1,6.1-6.1s6.1,2.73,6.1,6.1v10.49c0,1.24-1.01,2.25-2.25,2.25Zm-5.44-11.06h3.19v-1.68c0-.88-.72-1.6-1.6-1.6s-1.6,.72-1.6,1.6v1.68Z"/>
  </g>
</svg>