<?xml version="1.0" encoding="UTF-8"?>
<svg id="Layer_2" data-name="Layer 2" xmlns="http://www.w3.org/2000/svg" viewBox="0 0 88.24 78.83">
  <defs>
    <style>
      .cls-1 {
        fill: #231f20;
      }
    </style>
  </defs>
  <g id="Layer_1-2" data-name="Layer 1">
    <path class="cls-1" d="M61.52,78.83H26.73c-10.08,0-18.28-8.2-18.28-18.28v-3.02c-4.82-1.04-8.45-5.33-8.45-10.46v-10.08c0-5.13,3.63-9.42,8.45-10.46v-.77c0-10.08,8.2-18.28,18.28-18.28h15.15V2.25c0-1.24,1.01-2.25,2.25-2.25s2.25,1.01,2.25,2.25V7.48h15.15c10.08,0,18.28,8.2,18.28,18.28v.77c4.82,1.04,8.45,5.33,8.45,10.46v10.08c0,5.13-3.63,9.42-8.45,10.46v3.02c0,10.08-8.2,18.28-18.28,18.28ZM26.73,11.98c-7.6,0-13.78,6.18-13.78,13.78V60.55c0,7.6,6.18,13.78,13.78,13.78H61.52c7.6,0,13.78-6.18,13.78-13.78V25.76c0-7.6-6.18-13.78-13.78-13.78H26.73Zm53.07,19.24v21.63c2.31-.9,3.95-3.15,3.95-5.78v-10.08c0-2.62-1.64-4.87-3.95-5.78Zm-71.35,0c-2.31,.9-3.95,3.15-3.95,5.78v10.08c0,2.62,1.64,4.87,3.95,5.78V31.22Zm47.77,33.53h-24.19c-3.37,0-6.12-2.74-6.12-6.12s2.74-6.12,6.12-6.12h24.19c3.37,0,6.12,2.74,6.12,6.12s-2.74,6.12-6.12,6.12Zm-24.19-7.73c-.89,0-1.62,.73-1.62,1.62s.73,1.62,1.62,1.62h24.19c.89,0,1.62-.73,1.62-1.62s-.73-1.62-1.62-1.62h-24.19Zm24.68-20.82c-1.67,0-3.03-1.36-3.03-3.03s1.36-3.03,3.03-3.03,3.03,1.36,3.03,3.03-1.36,3.03-3.03,3.03Zm-25.17,0c-1.67,0-3.03-1.36-3.03-3.03s1.36-3.03,3.03-3.03,3.03,1.36,3.03,3.03-1.36,3.03-3.03,3.03Z"/>
  </g>
</svg>