<?xml version="1.0" encoding="UTF-8"?>
<svg id="Layer_2" data-name="Layer 2" xmlns="http://www.w3.org/2000/svg" viewBox="0 0 81.12 81.12">
  <defs>
    <style>
      .cls-1 {
        fill: #231f20;
      }
    </style>
  </defs>
  <g id="Layer_1-2" data-name="Layer 1">
    <path class="cls-1" d="M73.19,81.12h-20.38c-1.24,0-2.25-1.01-2.25-2.25v-10.78H30.56v10.78c0,1.24-1.01,2.25-2.25,2.25H7.93c-4.37,0-7.93-3.56-7.93-7.93v-20.39c0-1.24,1.01-2.25,2.25-2.25H13.03V30.56H2.25c-1.24,0-2.25-1.01-2.25-2.25V7.93C0,3.56,3.56,0,7.93,0H28.31c1.24,0,2.25,1.01,2.25,2.25V13.03h19.99V2.25c0-1.24,1.01-2.25,2.25-2.25h20.38c4.37,0,7.93,3.56,7.93,7.93V28.31c0,1.24-1.01,2.25-2.25,2.25h-10.78v19.99h10.78c1.24,0,2.25,1.01,2.25,2.25v20.39c0,4.37-3.56,7.93-7.93,7.93Zm-18.13-4.5h18.13c1.89,0,3.43-1.54,3.43-3.43v-18.14h-8.53v10.78c0,1.24-1.01,2.25-2.25,2.25h-10.78v8.53ZM4.5,55.06v18.14c0,1.89,1.54,3.43,3.43,3.43H26.06v-8.53H15.28c-1.24,0-2.25-1.01-2.25-2.25v-10.78H4.5Zm48.31,8.53h10.78V17.53H17.53V63.59H52.81Zm15.28-37.52h8.53V7.93c0-1.89-1.54-3.43-3.43-3.43h-18.13V13.03h10.78c1.24,0,2.25,1.01,2.25,2.25v10.78Zm-63.59,0H13.03V15.28c0-1.24,1.01-2.25,2.25-2.25h10.78V4.5H7.93c-1.89,0-3.43,1.54-3.43,3.43V26.06Zm44.85,25.06c-1.24,0-2.25-1.01-2.25-2.25v-16.63c0-1.24,1.01-2.25,2.25-2.25s2.25,1.01,2.25,2.25v16.63c0,1.24-1.01,2.25-2.25,2.25Zm-8.65,0c-1.24,0-2.25-1.01-2.25-2.25v-5.36h-4.43v5.36c0,1.24-1.01,2.25-2.25,2.25s-2.25-1.01-2.25-2.25v-12.17c0-3.7,3.01-6.71,6.71-6.71s6.71,3.01,6.71,6.71v12.17c0,1.24-1.01,2.25-2.25,2.25Zm-6.68-12.11h4.43v-2.31c0-1.22-.99-2.21-2.21-2.21s-2.21,.99-2.21,2.21v2.31Z"/>
  </g>
</svg>