<?xml version="1.0" encoding="UTF-8"?>
<svg id="Layer_2" data-name="Layer 2" xmlns="http://www.w3.org/2000/svg" viewBox="0 0 71.12 78.33">
  <defs>
    <style>
      .cls-1 {
        fill: #231f20;
      }
    </style>
  </defs>
  <g id="Layer_1-2" data-name="Layer 1">
    <path class="cls-1" d="M23.6,78.33c-8.1,0-14.69-7.25-14.69-16.15,0-1.46,.18-2.92,.53-4.33,.03-.12,.06-.24,.1-.36C.81,51.87-.95,42.98,.42,36.28c.45-2.19,1.23-4.27,2.35-6.22-1.26-4.53-.9-8.94,1.14-12.71,1.94-3.57,5.18-6.09,8.64-6.84C13.35,4.59,18.79,0,25.37,0c7.04,0,12.79,5.26,12.92,11.78,0,.03,0,.07,0,.1v1.98h6.57c.99-3.7,4.38-6.43,8.38-6.43,4.79,0,8.68,3.89,8.68,8.68s-3.89,8.68-8.68,8.68c-4.01,0-7.39-2.73-8.38-6.43h-6.57v18.55h15.77c.99-3.7,4.38-6.43,8.38-6.43,4.79,0,8.68,3.89,8.68,8.68s-3.89,8.68-8.68,8.68c-4.01,0-7.39-2.73-8.38-6.43h-15.77v18.55h6.38c.99-3.7,4.38-6.43,8.38-6.43,4.79,0,8.68,3.89,8.68,8.68s-3.89,8.68-8.68,8.68c-4.01,0-7.39-2.73-8.38-6.43h-6.53c-.07,.54-.16,1.07-.28,1.59-1.61,7.23-7.48,12.28-14.27,12.28Zm-9-28c.52,0,1.04,.18,1.46,.54,.94,.81,1.05,2.23,.25,3.17-1.17,1.37-2.04,3.07-2.51,4.91-.26,1.05-.4,2.14-.4,3.23,0,6.42,4.57,11.65,10.19,11.65,4.66,0,8.72-3.6,9.88-8.76,.21-.94,.32-1.91,.32-2.89V12.01c0-4.14-3.78-7.51-8.42-7.51s-8.42,3.37-8.42,7.51v.38c.02,.12,.01,.24,0,.36-.18,3,1.38,9.44,3.28,10.64,1.05,.67,1.36,2.06,.7,3.1-.67,1.05-2.06,1.36-3.1,.7-3.29-2.09-4.83-8.04-5.25-12.02-1.85,.7-3.6,2.26-4.71,4.31-1.01,1.86-2.12,5.27-.6,9.97,.06,.13,.1,.27,.13,.41,.53,1.53,1.34,3.19,2.52,4.98,.68,1.04,.4,2.43-.64,3.12-1.03,.69-2.43,.4-3.12-.64-.34-.52-.66-1.04-.96-1.56-.14,.47-.26,.94-.36,1.43-1.31,6.42,1.11,12.29,6.51,16.1,.46-.77,.98-1.49,1.56-2.16,.45-.52,1.08-.79,1.71-.79Zm38.45,7.71c-2.3,0-4.18,1.87-4.18,4.18s1.87,4.18,4.18,4.18,4.18-1.87,4.18-4.18-1.87-4.18-4.18-4.18Zm9.39-23.05c-2.3,0-4.18,1.87-4.18,4.18s1.87,4.18,4.18,4.18,4.18-1.87,4.18-4.18-1.87-4.18-4.18-4.18Zm-9.2-23.05c-2.3,0-4.18,1.87-4.18,4.18s1.87,4.18,4.18,4.18,4.18-1.87,4.18-4.18-1.87-4.18-4.18-4.18Z"/>
  </g>
</svg>