<?xml version="1.0" encoding="UTF-8"?>
<svg id="Layer_2" data-name="Layer 2" xmlns="http://www.w3.org/2000/svg" viewBox="0 0 121.76 76.84">
  <defs>
    <style>
      .cls-1 {
        fill: #231f20;
      }
    </style>
  </defs>
  <g id="Layer_1-2" data-name="Layer 1">
    <path class="cls-1" d="M106.81,76.84c-3.86,0-7.12-2.61-8.1-6.16h-6.45c-.75,0-1.44-.37-1.86-.99l-9.97-14.72c-.29,6.27-5.05,11.26-10.85,11.26-3.47,0-6.61-1.77-8.62-4.62-2.01,2.85-5.15,4.62-8.62,4.62-5.88,0-10.68-5.12-10.86-11.5l-10.12,14.95c-.42,.62-1.12,.99-1.86,.99h-6.45c-.99,3.55-4.25,6.16-8.1,6.16-4.64,0-8.41-3.77-8.41-8.41s3.77-8.41,8.41-8.41c3.86,0,7.12,2.61,8.1,6.16h5.25l11.26-16.63c-2.67-2.66-3.9-5.84-4.19-8.88H16.52c-.99,3.55-4.25,6.16-8.1,6.16-4.64,0-8.41-3.77-8.41-8.41s3.77-8.41,8.41-8.41c3.86,0,7.12,2.61,8.1,6.16h19.12c.31-1.45,.82-2.84,1.53-4.14-.5-1.94-.58-3.86-.25-5.66l-8.74-15.7h-5.13c-.99,3.55-4.25,6.16-8.1,6.16-4.64,0-8.41-3.77-8.41-8.41S10.3,0,14.94,0c3.86,0,7.12,2.61,8.1,6.16h6.45c.82,0,1.57,.44,1.97,1.16l7.77,13.96c1.31-1.6,3.04-2.75,4.84-3.26,.81-4.21,4.76-7.42,9.49-7.42,2.96,0,5.62,1.26,7.39,3.23,1.77-1.97,4.43-3.23,7.39-3.23,4.73,0,8.68,3.21,9.49,7.42,1.76,.5,3.45,1.6,4.74,3.14l7.71-13.84c.4-.71,1.15-1.16,1.97-1.16h6.45c.99-3.55,4.25-6.16,8.1-6.16,4.64,0,8.41,3.77,8.41,8.41s-3.77,8.41-8.41,8.41c-3.86,0-7.12-2.61-8.1-6.16h-5.13l-8.62,15.47c.37,1.86,.31,3.87-.21,5.89,.71,1.3,1.23,2.69,1.53,4.14h18.95c.99-3.55,4.25-6.16,8.1-6.16,4.64,0,8.41,3.77,8.41,8.41s-3.77,8.41-8.41,8.41c-3.86,0-7.12-2.61-8.1-6.16h-18.69c-.29,3.07-1.55,6.3-4.29,8.98l11.19,16.53h5.25c.99-3.55,4.25-6.16,8.1-6.16,4.64,0,8.41,3.77,8.41,8.41s-3.77,8.41-8.41,8.41Zm0-12.32c-2.16,0-3.91,1.75-3.91,3.91s1.75,3.91,3.91,3.91,3.91-1.75,3.91-3.91-1.75-3.91-3.91-3.91Zm-91.87,0c-2.16,0-3.91,1.75-3.91,3.91s1.75,3.91,3.91,3.91,3.91-1.75,3.91-3.91-1.75-3.91-3.91-3.91ZM68.35,15.1c-2.83,0-5.14,2.02-5.14,4.51V54.36c0,.63,.07,1.25,.2,1.85,.73,3.26,3.26,5.53,6.17,5.53,3.51,0,6.37-3.31,6.37-7.38,0-.7-.08-1.4-.25-2.07-.05-.18-.19-.47-.36-.82-.53-1.08-.11-2.39,.94-2.97,.4-.22,.79-.45,1.14-.7,.14-.19,.32-.36,.53-.51,.14-.1,.29-.17,.45-.23,3.44-2.88,4.13-6.84,3.51-9.88-.26-1.29-.76-2.52-1.48-3.65-.36-.57-.45-1.28-.24-1.92,.66-1.99,.62-3.61,.31-4.86-.08-.19-.14-.39-.17-.59-.26-.76-.61-1.35-.91-1.77-.97-1.33-2.43-2.3-3.68-2.19-.61,.01-1.22-.25-1.65-.7-.43-.45-.65-1.06-.61-1.68,0-2.7-2.3-4.73-5.14-4.73Zm-28.33,22.08c-.73,3.59,.36,8.44,5.63,11.31,1.06,.58,1.47,1.89,.94,2.97-.17,.35-.31,.64-.36,.83-.17,.67-.25,1.36-.25,2.06,0,4.07,2.86,7.38,6.37,7.38,2.9,0,5.44-2.27,6.16-5.53,.13-.6,.2-1.22,.2-1.85V19.61c0-2.49-2.31-4.51-5.14-4.51s-5.14,2.02-5.14,4.51c.03,.62-.19,1.34-.62,1.79-.43,.45-.92,.93-1.63,.82-1.28-.15-2.71,.85-3.67,2.19-.81,1.12-1.99,3.54-.77,7.21,.21,.64,.13,1.35-.24,1.92-.72,1.13-1.22,2.35-1.48,3.65h0Zm73.33-2.67c-2.16,0-3.91,1.75-3.91,3.91s1.75,3.91,3.91,3.91,3.91-1.75,3.91-3.91-1.75-3.91-3.91-3.91Zm-104.93,0c-2.16,0-3.91,1.75-3.91,3.91s1.75,3.91,3.91,3.91,3.91-1.75,3.91-3.91-1.75-3.91-3.91-3.91ZM106.81,4.5c-2.16,0-3.91,1.75-3.91,3.91s1.75,3.91,3.91,3.91,3.91-1.75,3.91-3.91-1.75-3.91-3.91-3.91ZM14.94,4.5c-2.16,0-3.91,1.75-3.91,3.91s1.75,3.91,3.91,3.91,3.91-1.75,3.91-3.91-1.75-3.91-3.91-3.91Z"/>
  </g>
</svg>