<?xml version="1.0" encoding="UTF-8"?>
<svg id="Layer_2" data-name="Layer 2" xmlns="http://www.w3.org/2000/svg" viewBox="0 0 59.36 75.43">
  <defs>
    <style>
      .cls-1 {
        fill: #231f20;
      }
    </style>
  </defs>
  <g id="Layer_1-2" data-name="Layer 1">
    <path class="cls-1" d="M38.86,75.43H20.5c-1.24,0-2.25-1.01-2.25-2.25s1.01-2.25,2.25-2.25h18.36c1.24,0,2.25,1.01,2.25,2.25s-1.01,2.25-2.25,2.25Zm2.72-10.39H17.77c-1.24,0-2.25-1.01-2.25-2.25,0-2.15-2.01-4.79-4.79-8.44-1.77-2.32-3.77-4.94-5.9-8.24C1.67,41.25,0,35.62,0,29.83,0,13.38,13.31,0,29.68,0s29.68,13.38,29.68,29.83c0,5.79-1.67,11.42-4.83,16.28-2.14,3.3-4.14,5.93-5.91,8.24-2.78,3.63-4.79,6.26-4.79,8.44,0,1.24-1.01,2.25-2.25,2.25Zm-21.56-2.25h0Zm11.9-2.25h7.7c.74-2.81,2.79-5.49,5.42-8.93,1.72-2.25,3.67-4.79,5.71-7.95,2.69-4.13,4.1-8.91,4.1-13.83,0-13.96-11.3-25.33-25.18-25.33S4.5,15.86,4.5,29.83c0,4.92,1.42,9.7,4.1,13.83,0,0,0,0,0,0,2.04,3.16,3.99,5.71,5.7,7.96,2.62,3.44,4.67,6.13,5.42,8.92h7.71v-7.41l-7.4-6.29c-.57,.14-1.17,.21-1.78,.21-4.16,0-7.54-3.38-7.54-7.54s3.38-7.54,7.54-7.54,7.54,3.38,7.54,7.54c0,1.84-.66,3.52-1.75,4.83l3.39,2.88V27.63c-3.06-.96-5.29-3.82-5.29-7.2,0-4.16,3.38-7.54,7.54-7.54s7.54,3.38,7.54,7.54c0,3.37-2.23,6.24-5.29,7.2v19.6l3.39-2.88c-1.09-1.31-1.75-2.99-1.75-4.83,0-4.16,3.38-7.54,7.54-7.54s7.54,3.38,7.54,7.54-3.38,7.54-7.54,7.54c-.61,0-1.21-.07-1.78-.21l-7.4,6.28v7.41Zm8.04-18.2c.35,.15,.74,.22,1.14,.22,1.68,0,3.04-1.37,3.04-3.04s-1.37-3.04-3.04-3.04-3.04,1.36-3.04,3.04c0,1.16,.65,2.17,1.6,2.68,.1,.04,.2,.09,.3,.14Zm-21.72-5.86c-1.68,0-3.04,1.36-3.04,3.04s1.36,3.04,3.04,3.04c.41,0,.8-.08,1.15-.23,.09-.05,.18-.09,.28-.13,.96-.51,1.61-1.52,1.61-2.68,0-1.68-1.36-3.04-3.04-3.04Zm11.43-19.09c-1.68,0-3.04,1.36-3.04,3.04s1.36,3.04,3.04,3.04,3.04-1.36,3.04-3.04-1.36-3.04-3.04-3.04Z"/>
  </g>
</svg>