<?xml version="1.0" encoding="UTF-8"?>
<svg id="Layer_2" data-name="Layer 2" xmlns="http://www.w3.org/2000/svg" viewBox="0 0 74.99 74.99">
  <defs>
    <style>
      .cls-1 {
        fill: #231f20;
      }
    </style>
  </defs>
  <g id="Layer_1-2" data-name="Layer 1">
    <path class="cls-1" d="M43.26,22.36h-11.53c-5.17,0-9.37,4.2-9.37,9.37v11.53c0,5.17,4.2,9.37,9.37,9.37h11.53c5.17,0,9.37-4.2,9.37-9.37v-11.53c0-5.17-4.2-9.37-9.37-9.37Zm4.87,20.9c0,2.69-2.19,4.87-4.87,4.87h-11.53c-2.69,0-4.87-2.19-4.87-4.87v-11.53c0-2.69,2.19-4.87,4.87-4.87h11.53c2.69,0,4.87,2.19,4.87,4.87v11.53Zm24.61-3.52c1.24,0,2.25-1.01,2.25-2.25s-1.01-2.25-2.25-2.25h-4.5v-6.62h4.5c1.24,0,2.25-1.01,2.25-2.25s-1.01-2.25-2.25-2.25h-4.5v-8.01c0-5.17-4.2-9.37-9.37-9.37h-8.01V2.25c0-1.24-1.01-2.25-2.25-2.25s-2.25,1.01-2.25,2.25V6.75h-6.61V2.25c0-1.24-1.01-2.25-2.25-2.25s-2.25,1.01-2.25,2.25V6.75h-6.62V2.25c0-1.24-1.01-2.25-2.25-2.25s-2.25,1.01-2.25,2.25V6.75h-8.01c-5.17,0-9.37,4.2-9.37,9.37v8.01H2.25c-1.24,0-2.25,1.01-2.25,2.25s1.01,2.25,2.25,2.25H6.75v6.62H2.25c-1.24,0-2.25,1.01-2.25,2.25s1.01,2.25,2.25,2.25H6.75v6.62H2.25c-1.24,0-2.25,1.01-2.25,2.25s1.01,2.25,2.25,2.25H6.75v8.01c0,5.17,4.2,9.37,9.37,9.37h8.01v4.5c0,1.24,1.01,2.25,2.25,2.25s2.25-1.01,2.25-2.25v-4.5h6.62v4.5c0,1.24,1.01,2.25,2.25,2.25s2.25-1.01,2.25-2.25v-4.5h6.61v4.5c0,1.24,1.01,2.25,2.25,2.25s2.25-1.01,2.25-2.25v-4.5h8.01c5.17,0,9.37-4.2,9.37-9.37v-8.01h4.5c1.24,0,2.25-1.01,2.25-2.25s-1.01-2.25-2.25-2.25h-4.5v-6.62h4.5Zm-9,19.12c0,2.69-2.19,4.87-4.87,4.87H16.12c-2.69,0-4.87-2.19-4.87-4.87V16.12c0-2.69,2.19-4.87,4.87-4.87H58.87c2.69,0,4.87,2.19,4.87,4.87V58.87Z"/>
  </g>
</svg>